M48
; DRILL file {KiCad 8.0.3} date 2024-11-26T12:10:12-0800
; FORMAT={-:-/ absolute / inch / decimal}
; #@! TF.CreationDate,2024-11-26T12:10:12-08:00
; #@! TF.GenerationSoftware,Kicad,Pcbnew,8.0.3
; #@! TF.FileFunction,Plated,1,2,PTH
FMAT,2
INCH
; #@! TA.AperFunction,Plated,PTH,ViaDrill
T1C0.0118
; #@! TA.AperFunction,Plated,PTH,ComponentDrill
T2C0.0400
; #@! TA.AperFunction,Plated,PTH,ComponentDrill
T3C0.0429
; #@! TA.AperFunction,Plated,PTH,ComponentDrill
T4C0.0551
; #@! TA.AperFunction,Plated,PTH,ComponentDrill
T5C0.1260
%
G90
G05
T1
X1.845Y-1.975
X1.845Y-2.03
X1.875Y-2.0
X1.905Y-1.975
X1.905Y-2.03
X2.125Y-2.325
X2.2Y-1.7
T2
X2.97Y-1.55
X2.97Y-1.65
X2.97Y-1.75
X2.97Y-2.55
X2.97Y-2.65
X2.97Y-2.75
X3.75Y-1.55
X3.75Y-1.65
X3.75Y-2.55
X3.75Y-2.65
T3
X2.425Y-1.15
X2.525Y-1.15
X2.625Y-1.15
X4.0455Y-1.45
X4.0455Y-1.55
X4.0455Y-2.45
X4.0455Y-2.55
T4
X1.175Y-1.9114
X1.175Y-2.128
T5
X1.15Y-1.15
X1.15Y-2.85
X4.1Y-1.15
X4.1Y-2.85
M30
