%TF.GenerationSoftware,KiCad,Pcbnew,8.0.3*%
%TF.CreationDate,2024-11-26T12:10:15-08:00*%
%TF.ProjectId,IlluminationControlBoard,496c6c75-6d69-46e6-9174-696f6e436f6e,rev?*%
%TF.SameCoordinates,Original*%
%TF.FileFunction,Copper,L1,Top*%
%TF.FilePolarity,Positive*%
%FSLAX46Y46*%
G04 Gerber Fmt 4.6, Leading zero omitted, Abs format (unit mm)*
G04 Created by KiCad (PCBNEW 8.0.3) date 2024-11-26 12:10:15*
%MOMM*%
%LPD*%
G01*
G04 APERTURE LIST*
G04 Aperture macros list*
%AMRoundRect*
0 Rectangle with rounded corners*
0 $1 Rounding radius*
0 $2 $3 $4 $5 $6 $7 $8 $9 X,Y pos of 4 corners*
0 Add a 4 corners polygon primitive as box body*
4,1,4,$2,$3,$4,$5,$6,$7,$8,$9,$2,$3,0*
0 Add four circle primitives for the rounded corners*
1,1,$1+$1,$2,$3*
1,1,$1+$1,$4,$5*
1,1,$1+$1,$6,$7*
1,1,$1+$1,$8,$9*
0 Add four rect primitives between the rounded corners*
20,1,$1+$1,$2,$3,$4,$5,0*
20,1,$1+$1,$4,$5,$6,$7,0*
20,1,$1+$1,$6,$7,$8,$9,0*
20,1,$1+$1,$8,$9,$2,$3,0*%
G04 Aperture macros list end*
%TA.AperFunction,ComponentPad*%
%ADD10C,5.500000*%
%TD*%
%TA.AperFunction,SMDPad,CuDef*%
%ADD11RoundRect,0.250000X-1.000000X1.400000X-1.000000X-1.400000X1.000000X-1.400000X1.000000X1.400000X0*%
%TD*%
%TA.AperFunction,WasherPad*%
%ADD12C,3.500000*%
%TD*%
%TA.AperFunction,WasherPad*%
%ADD13C,3.000000*%
%TD*%
%TA.AperFunction,ComponentPad*%
%ADD14R,1.716000X1.716000*%
%TD*%
%TA.AperFunction,ComponentPad*%
%ADD15C,1.716000*%
%TD*%
%TA.AperFunction,SMDPad,CuDef*%
%ADD16RoundRect,0.250000X-0.475000X0.250000X-0.475000X-0.250000X0.475000X-0.250000X0.475000X0.250000X0*%
%TD*%
%TA.AperFunction,ComponentPad*%
%ADD17RoundRect,0.250000X0.620000X-0.620000X0.620000X0.620000X-0.620000X0.620000X-0.620000X-0.620000X0*%
%TD*%
%TA.AperFunction,ComponentPad*%
%ADD18C,1.740000*%
%TD*%
%TA.AperFunction,SMDPad,CuDef*%
%ADD19RoundRect,0.200000X-0.200000X-0.275000X0.200000X-0.275000X0.200000X0.275000X-0.200000X0.275000X0*%
%TD*%
%TA.AperFunction,SMDPad,CuDef*%
%ADD20RoundRect,0.225000X-0.225000X-0.250000X0.225000X-0.250000X0.225000X0.250000X-0.225000X0.250000X0*%
%TD*%
%TA.AperFunction,SMDPad,CuDef*%
%ADD21RoundRect,0.225000X0.225000X0.250000X-0.225000X0.250000X-0.225000X-0.250000X0.225000X-0.250000X0*%
%TD*%
%TA.AperFunction,SMDPad,CuDef*%
%ADD22RoundRect,0.225000X-0.250000X0.225000X-0.250000X-0.225000X0.250000X-0.225000X0.250000X0.225000X0*%
%TD*%
%TA.AperFunction,SMDPad,CuDef*%
%ADD23RoundRect,0.200000X0.200000X0.275000X-0.200000X0.275000X-0.200000X-0.275000X0.200000X-0.275000X0*%
%TD*%
%TA.AperFunction,ComponentPad*%
%ADD24RoundRect,0.250001X1.099999X1.399999X-1.099999X1.399999X-1.099999X-1.399999X1.099999X-1.399999X0*%
%TD*%
%TA.AperFunction,ComponentPad*%
%ADD25O,2.700000X3.300000*%
%TD*%
%TA.AperFunction,SMDPad,CuDef*%
%ADD26RoundRect,0.475000X-0.475000X-2.075000X0.475000X-2.075000X0.475000X2.075000X-0.475000X2.075000X0*%
%TD*%
%TA.AperFunction,SMDPad,CuDef*%
%ADD27RoundRect,0.200000X-0.275000X0.200000X-0.275000X-0.200000X0.275000X-0.200000X0.275000X0.200000X0*%
%TD*%
%TA.AperFunction,SMDPad,CuDef*%
%ADD28RoundRect,0.250000X0.475000X-0.250000X0.475000X0.250000X-0.475000X0.250000X-0.475000X-0.250000X0*%
%TD*%
%TA.AperFunction,ComponentPad*%
%ADD29RoundRect,0.250000X-0.620000X-0.620000X0.620000X-0.620000X0.620000X0.620000X-0.620000X0.620000X0*%
%TD*%
%TA.AperFunction,SMDPad,CuDef*%
%ADD30R,1.270000X0.304800*%
%TD*%
%TA.AperFunction,SMDPad,CuDef*%
%ADD31R,2.460000X2.310000*%
%TD*%
%TA.AperFunction,SMDPad,CuDef*%
%ADD32R,1.219200X3.098800*%
%TD*%
%TA.AperFunction,ViaPad*%
%ADD33C,0.600000*%
%TD*%
%TA.AperFunction,Conductor*%
%ADD34C,0.200000*%
%TD*%
%TA.AperFunction,Conductor*%
%ADD35C,0.500000*%
%TD*%
G04 APERTURE END LIST*
D10*
%TO.P,REF\u002A\u002A,1*%
%TO.N,N/C*%
X29210000Y-29210000D03*
%TD*%
D11*
%TO.P,D1,1,K*%
%TO.N,15V*%
X56105000Y-38100000D03*
%TO.P,D1,2,A*%
%TO.N,Net-(D1-A)*%
X49305000Y-38100000D03*
%TD*%
D10*
%TO.P,REF\u002A\u002A,1*%
%TO.N,N/C*%
X104140000Y-72390000D03*
%TD*%
D12*
%TO.P,U2,*%
%TO.N,*%
X85090000Y-53467000D03*
D13*
X85090000Y-73533000D03*
D14*
%TO.P,U2,1,GND*%
%TO.N,GND*%
X75438000Y-69850000D03*
D15*
%TO.P,U2,2,VIN*%
%TO.N,15V*%
X75438000Y-67310000D03*
%TO.P,U2,3,PWM*%
%TO.N,L2_PWM*%
X75438000Y-64770000D03*
%TO.P,U2,4,LED+*%
%TO.N,L2_PLUS*%
X95250000Y-64770000D03*
D14*
%TO.P,U2,5,LED-*%
%TO.N,L2_MINUS*%
X95250000Y-67310000D03*
%TD*%
D16*
%TO.P,C1,1*%
%TO.N,12V*%
X36195000Y-49850000D03*
%TO.P,C1,2*%
%TO.N,GND*%
X36195000Y-51750000D03*
%TD*%
D17*
%TO.P,J2,1,Pin_1*%
%TO.N,L2_MINUS*%
X102755000Y-64770000D03*
D18*
%TO.P,J2,2,Pin_2*%
%TO.N,L2_PLUS*%
X102755000Y-62230000D03*
%TD*%
D19*
%TO.P,R3,1*%
%TO.N,Net-(U3-FB)*%
X53150000Y-57150000D03*
%TO.P,R3,2*%
%TO.N,15V*%
X54800000Y-57150000D03*
%TD*%
D20*
%TO.P,C3,1*%
%TO.N,GND*%
X41135000Y-55880000D03*
%TO.P,C3,2*%
%TO.N,Net-(U3-SS)*%
X42685000Y-55880000D03*
%TD*%
D10*
%TO.P,REF\u002A\u002A,1*%
%TO.N,N/C*%
X104140000Y-29210000D03*
%TD*%
D21*
%TO.P,C4,1*%
%TO.N,Net-(U3-COMP)*%
X48400000Y-55880000D03*
%TO.P,C4,2*%
%TO.N,GND*%
X46850000Y-55880000D03*
%TD*%
D22*
%TO.P,C2,1*%
%TO.N,12V*%
X40640000Y-50025000D03*
%TO.P,C2,2*%
%TO.N,GND*%
X40640000Y-51575000D03*
%TD*%
D23*
%TO.P,R4,1*%
%TO.N,GND*%
X54800000Y-55245000D03*
%TO.P,R4,2*%
%TO.N,Net-(U3-FB)*%
X53150000Y-55245000D03*
%TD*%
D24*
%TO.P,J3,1,Pin_1*%
%TO.N,GND*%
X29845000Y-54050000D03*
D25*
%TO.P,J3,2,Pin_2*%
%TO.N,12V*%
X29845000Y-48550000D03*
%TD*%
D26*
%TO.P,L1,1,1*%
%TO.N,12V*%
X36635000Y-38100000D03*
%TO.P,L1,2,2*%
%TO.N,Net-(D1-A)*%
X40835000Y-38100000D03*
%TD*%
D27*
%TO.P,R1,1*%
%TO.N,Net-(U3-FREQ)*%
X54610000Y-51880000D03*
%TO.P,R1,2*%
%TO.N,GND*%
X54610000Y-53530000D03*
%TD*%
D10*
%TO.P,REF\u002A\u002A,1*%
%TO.N,N/C*%
X29210000Y-72390000D03*
%TD*%
D28*
%TO.P,C7,1*%
%TO.N,GND*%
X55880000Y-47940000D03*
%TO.P,C7,2*%
%TO.N,15V*%
X55880000Y-46040000D03*
%TD*%
D21*
%TO.P,C5,1*%
%TO.N,Net-(C5-Pad1)*%
X42685000Y-57785000D03*
%TO.P,C5,2*%
%TO.N,GND*%
X41135000Y-57785000D03*
%TD*%
D17*
%TO.P,J1,1,Pin_1*%
%TO.N,L1_MINUS*%
X102755000Y-39370000D03*
D18*
%TO.P,J1,2,Pin_2*%
%TO.N,L1_PLUS*%
X102755000Y-36830000D03*
%TD*%
D29*
%TO.P,J4,1,Pin_1*%
%TO.N,GND*%
X61595000Y-29210000D03*
D18*
%TO.P,J4,2,Pin_2*%
%TO.N,L1_PWM*%
X64135000Y-29210000D03*
%TO.P,J4,3,Pin_3*%
%TO.N,L2_PWM*%
X66675000Y-29210000D03*
%TD*%
D12*
%TO.P,U1,*%
%TO.N,*%
X85090000Y-28067000D03*
D13*
X85090000Y-48133000D03*
D14*
%TO.P,U1,1,GND*%
%TO.N,GND*%
X75438000Y-44450000D03*
D15*
%TO.P,U1,2,VIN*%
%TO.N,15V*%
X75438000Y-41910000D03*
%TO.P,U1,3,PWM*%
%TO.N,L1_PWM*%
X75438000Y-39370000D03*
%TO.P,U1,4,LED+*%
%TO.N,L1_PLUS*%
X95250000Y-39370000D03*
D14*
%TO.P,U1,5,LED-*%
%TO.N,L1_MINUS*%
X95250000Y-41910000D03*
%TD*%
D30*
%TO.P,U3,1,SW*%
%TO.N,Net-(D1-A)*%
X44653200Y-48849966D03*
%TO.P,U3,2,SW*%
X44653200Y-49499977D03*
%TO.P,U3,3,VIN*%
%TO.N,12V*%
X44653200Y-50149989D03*
%TO.P,U3,4,EN*%
X44653200Y-50800000D03*
%TO.P,U3,5,SS*%
%TO.N,Net-(U3-SS)*%
X44653200Y-51450011D03*
%TO.P,U3,6,SYNC*%
%TO.N,GND*%
X44653200Y-52100023D03*
%TO.P,U3,7,AGND*%
X44653200Y-52750034D03*
%TO.P,U3,8,COMP*%
%TO.N,Net-(U3-COMP)*%
X50596800Y-52750034D03*
%TO.P,U3,9,FB*%
%TO.N,Net-(U3-FB)*%
X50596800Y-52100023D03*
%TO.P,U3,10,FREQ*%
%TO.N,Net-(U3-FREQ)*%
X50596800Y-51450011D03*
%TO.P,U3,11,NC*%
%TO.N,GND*%
X50596800Y-50800000D03*
%TO.P,U3,12,PGND*%
X50596800Y-50149989D03*
%TO.P,U3,13,PGND*%
X50596800Y-49499977D03*
%TO.P,U3,14,PGND*%
X50596800Y-48849966D03*
D31*
%TO.P,U3,15,EPAD*%
X47625000Y-50800000D03*
%TD*%
D32*
%TO.P,C6,1*%
%TO.N,15V*%
X64770000Y-44284900D03*
%TO.P,C6,2*%
%TO.N,GND*%
X64770000Y-49695100D03*
%TD*%
D23*
%TO.P,R2,1*%
%TO.N,Net-(U3-COMP)*%
X48450000Y-57785000D03*
%TO.P,R2,2*%
%TO.N,Net-(C5-Pad1)*%
X46800000Y-57785000D03*
%TD*%
D33*
%TO.N,GND*%
X46863000Y-50165000D03*
X47625000Y-50800000D03*
X46863000Y-51562000D03*
X48387000Y-51562000D03*
X48387000Y-50165000D03*
%TO.N,15V*%
X53975000Y-59055000D03*
X55880000Y-43180000D03*
%TD*%
D34*
%TO.N,GND*%
X46850000Y-54946834D02*
X44653200Y-52750034D01*
X44653200Y-52750034D02*
X44653200Y-52100023D01*
X46850000Y-55880000D02*
X46850000Y-54946834D01*
%TO.N,15V*%
X54800000Y-57150000D02*
X54800000Y-58230000D01*
X54800000Y-58230000D02*
X53975000Y-59055000D01*
%TO.N,Net-(U3-SS)*%
X44653200Y-51450011D02*
X43818200Y-51450011D01*
X43818200Y-51450011D02*
X42685000Y-52583211D01*
X42685000Y-52583211D02*
X42685000Y-55880000D01*
%TO.N,Net-(U3-COMP)*%
X48400000Y-55880000D02*
X48400000Y-54946834D01*
X48400000Y-54946834D02*
X50596800Y-52750034D01*
X48450000Y-57785000D02*
X48450000Y-55930000D01*
X48450000Y-55930000D02*
X48400000Y-55880000D01*
D35*
%TO.N,L1_MINUS*%
X100215000Y-41910000D02*
X102755000Y-39370000D01*
X95250000Y-41910000D02*
X100215000Y-41910000D01*
%TO.N,L1_PLUS*%
X95250000Y-39370000D02*
X97790000Y-36830000D01*
X97790000Y-36830000D02*
X102755000Y-36830000D01*
%TO.N,L2_MINUS*%
X95250000Y-67310000D02*
X100215000Y-67310000D01*
X100215000Y-67310000D02*
X102755000Y-64770000D01*
%TO.N,L2_PLUS*%
X95250000Y-64770000D02*
X97790000Y-62230000D01*
X97790000Y-62230000D02*
X102755000Y-62230000D01*
D34*
%TO.N,L1_PWM*%
X67159630Y-28040000D02*
X75438000Y-36318370D01*
X65305000Y-28040000D02*
X67159630Y-28040000D01*
X75438000Y-36318370D02*
X75438000Y-39370000D01*
X64135000Y-29210000D02*
X65305000Y-28040000D01*
%TO.N,Net-(U3-FB)*%
X51431800Y-52100023D02*
X53150000Y-53818223D01*
X53150000Y-53818223D02*
X53150000Y-55245000D01*
X50596800Y-52100023D02*
X51431800Y-52100023D01*
X53150000Y-55245000D02*
X53150000Y-57150000D01*
%TO.N,Net-(U3-FREQ)*%
X54180011Y-51450011D02*
X54610000Y-51880000D01*
X50596800Y-51450011D02*
X54180011Y-51450011D01*
%TO.N,Net-(C5-Pad1)*%
X42685000Y-57785000D02*
X46800000Y-57785000D01*
%TD*%
%TA.AperFunction,Conductor*%
%TO.N,Net-(D1-A)*%
G36*
X50743039Y-26054685D02*
G01*
X50788794Y-26107489D01*
X50800000Y-26159000D01*
X50800000Y-46231000D01*
X50780315Y-46298039D01*
X50727511Y-46343794D01*
X50676000Y-46355000D01*
X45720000Y-46355000D01*
X45720000Y-46699062D01*
X45700315Y-46766101D01*
X45700161Y-46766306D01*
X45695433Y-46773663D01*
X45635663Y-46904537D01*
X45615976Y-46971582D01*
X45595500Y-47114001D01*
X45595500Y-49399431D01*
X45575815Y-49466470D01*
X45523011Y-49512225D01*
X45453853Y-49522169D01*
X45428168Y-49515613D01*
X45395685Y-49503498D01*
X45395683Y-49503497D01*
X45336083Y-49497090D01*
X45336081Y-49497089D01*
X45336073Y-49497089D01*
X45336065Y-49497089D01*
X44090543Y-49497089D01*
X44023504Y-49477404D01*
X43977749Y-49424600D01*
X43972888Y-49412248D01*
X43968622Y-49399431D01*
X43966314Y-49392496D01*
X43888526Y-49271457D01*
X43856710Y-49234739D01*
X43842777Y-49218659D01*
X43842773Y-49218656D01*
X43842771Y-49218653D01*
X43734037Y-49124433D01*
X43734034Y-49124431D01*
X43734032Y-49124430D01*
X43603166Y-49064664D01*
X43603161Y-49064662D01*
X43603160Y-49064662D01*
X43536121Y-49044977D01*
X43536123Y-49044977D01*
X43536118Y-49044976D01*
X43488645Y-49038150D01*
X43393701Y-49024500D01*
X43393699Y-49024500D01*
X42669000Y-49024500D01*
X42601961Y-49004815D01*
X42556206Y-48952011D01*
X42545000Y-48900500D01*
X42545000Y-46355000D01*
X40129000Y-46355000D01*
X40061961Y-46335315D01*
X40016206Y-46282511D01*
X40005000Y-46231000D01*
X40005000Y-26159000D01*
X40024685Y-26091961D01*
X40077489Y-26046206D01*
X40129000Y-26035000D01*
X50676000Y-26035000D01*
X50743039Y-26054685D01*
G37*
%TD.AperFunction*%
%TD*%
%TA.AperFunction,Conductor*%
%TO.N,12V*%
G36*
X38043039Y-26054685D02*
G01*
X38088794Y-26107489D01*
X38100000Y-26159000D01*
X38100000Y-46990000D01*
X41786000Y-46990000D01*
X41853039Y-47009685D01*
X41898794Y-47062489D01*
X41910000Y-47114000D01*
X41910000Y-49530000D01*
X43393701Y-49530000D01*
X43460740Y-49549685D01*
X43506495Y-49602489D01*
X43517701Y-49654000D01*
X43517701Y-49700253D01*
X43524108Y-49759860D01*
X43574402Y-49894705D01*
X43574406Y-49894712D01*
X43660652Y-50009921D01*
X43660655Y-50009924D01*
X43775864Y-50096170D01*
X43775871Y-50096174D01*
X43910717Y-50146468D01*
X43910716Y-50146468D01*
X43917644Y-50147212D01*
X43970327Y-50152877D01*
X45336072Y-50152876D01*
X45395683Y-50146468D01*
X45428168Y-50134351D01*
X45497857Y-50129368D01*
X45559181Y-50162852D01*
X45592666Y-50224175D01*
X45595500Y-50250534D01*
X45595500Y-50676000D01*
X45575815Y-50743039D01*
X45523011Y-50788794D01*
X45471500Y-50800000D01*
X45369586Y-50800000D01*
X45356331Y-50799289D01*
X45336082Y-50797112D01*
X45336073Y-50797111D01*
X45336063Y-50797111D01*
X43970329Y-50797111D01*
X43970325Y-50797112D01*
X43955290Y-50798728D01*
X43950065Y-50799290D01*
X43936814Y-50800000D01*
X41415192Y-50800000D01*
X41349297Y-50780650D01*
X41349191Y-50780823D01*
X41348562Y-50780435D01*
X41348153Y-50780315D01*
X41346793Y-50779344D01*
X41198705Y-50688001D01*
X41198699Y-50687998D01*
X41198697Y-50687997D01*
X41162492Y-50676000D01*
X41037709Y-50634651D01*
X40938346Y-50624500D01*
X40341662Y-50624500D01*
X40341644Y-50624501D01*
X40242292Y-50634650D01*
X40242289Y-50634651D01*
X40081305Y-50687996D01*
X40081294Y-50688001D01*
X39930809Y-50780823D01*
X39929249Y-50778294D01*
X39876939Y-50799405D01*
X39864808Y-50800000D01*
X36963516Y-50800000D01*
X36924512Y-50793706D01*
X36903924Y-50786884D01*
X36822797Y-50760001D01*
X36822795Y-50760000D01*
X36720010Y-50749500D01*
X35669998Y-50749500D01*
X35669980Y-50749501D01*
X35567203Y-50760000D01*
X35567200Y-50760001D01*
X35465488Y-50793706D01*
X35426484Y-50800000D01*
X30594955Y-50800000D01*
X30527916Y-50780315D01*
X30482161Y-50727511D01*
X30472217Y-50658353D01*
X30501242Y-50594797D01*
X30547503Y-50561439D01*
X30664978Y-50512779D01*
X30664993Y-50512772D01*
X30875009Y-50391519D01*
X31067405Y-50243889D01*
X31067412Y-50243883D01*
X31238883Y-50072412D01*
X31238889Y-50072405D01*
X31386519Y-49880009D01*
X31507772Y-49669993D01*
X31507779Y-49669978D01*
X31600578Y-49445939D01*
X31663346Y-49211687D01*
X31694998Y-48971264D01*
X31695000Y-48971248D01*
X31695000Y-48800000D01*
X30499121Y-48800000D01*
X30518099Y-48754182D01*
X30545000Y-48618944D01*
X30545000Y-48481056D01*
X30518099Y-48345818D01*
X30499121Y-48300000D01*
X31695000Y-48300000D01*
X31695000Y-48128751D01*
X31694998Y-48128735D01*
X31663346Y-47888312D01*
X31600578Y-47654060D01*
X31507779Y-47430021D01*
X31507772Y-47430006D01*
X31386519Y-47219990D01*
X31238889Y-47027594D01*
X31238883Y-47027587D01*
X31067412Y-46856116D01*
X31067405Y-46856110D01*
X30875009Y-46708480D01*
X30664993Y-46587227D01*
X30664978Y-46587220D01*
X30440939Y-46494421D01*
X30206687Y-46431653D01*
X30095000Y-46416948D01*
X30095000Y-47895879D01*
X30049182Y-47876901D01*
X29913944Y-47850000D01*
X29776056Y-47850000D01*
X29640818Y-47876901D01*
X29595000Y-47895879D01*
X29595000Y-46416948D01*
X29594999Y-46416948D01*
X29483312Y-46431653D01*
X29249060Y-46494421D01*
X29025021Y-46587220D01*
X29025006Y-46587227D01*
X28814990Y-46708480D01*
X28622594Y-46856110D01*
X28622587Y-46856116D01*
X28451116Y-47027587D01*
X28451110Y-47027594D01*
X28303480Y-47219990D01*
X28182227Y-47430006D01*
X28182220Y-47430021D01*
X28089421Y-47654060D01*
X28026653Y-47888312D01*
X27995001Y-48128735D01*
X27995000Y-48128751D01*
X27995000Y-48300000D01*
X29190879Y-48300000D01*
X29171901Y-48345818D01*
X29145000Y-48481056D01*
X29145000Y-48618944D01*
X29171901Y-48754182D01*
X29190879Y-48800000D01*
X27995000Y-48800000D01*
X27995000Y-48971248D01*
X27995001Y-48971264D01*
X28026653Y-49211687D01*
X28089421Y-49445939D01*
X28182220Y-49669978D01*
X28182227Y-49669993D01*
X28303480Y-49880009D01*
X28451110Y-50072405D01*
X28451116Y-50072412D01*
X28622587Y-50243883D01*
X28622594Y-50243889D01*
X28814990Y-50391519D01*
X29025006Y-50512772D01*
X29025021Y-50512779D01*
X29142497Y-50561439D01*
X29196901Y-50605280D01*
X29218966Y-50671574D01*
X29201687Y-50739273D01*
X29150550Y-50786884D01*
X29095045Y-50800000D01*
X26159000Y-50800000D01*
X26091961Y-50780315D01*
X26046206Y-50727511D01*
X26035000Y-50676000D01*
X26035000Y-30659386D01*
X26054685Y-30592347D01*
X26107489Y-30546592D01*
X26176647Y-30536648D01*
X26240203Y-30565673D01*
X26268555Y-30601303D01*
X26420695Y-30888269D01*
X26618498Y-31180006D01*
X26618505Y-31180016D01*
X26846685Y-31448649D01*
X26846686Y-31448650D01*
X27102580Y-31691046D01*
X27383182Y-31904354D01*
X27685202Y-32086074D01*
X27685206Y-32086075D01*
X27685210Y-32086078D01*
X28005088Y-32234070D01*
X28005092Y-32234070D01*
X28005099Y-32234074D01*
X28339122Y-32346619D01*
X28683355Y-32422391D01*
X29033763Y-32460500D01*
X29033769Y-32460500D01*
X29386231Y-32460500D01*
X29386237Y-32460500D01*
X29736645Y-32422391D01*
X30080878Y-32346619D01*
X30414901Y-32234074D01*
X30414908Y-32234070D01*
X30414911Y-32234070D01*
X30734789Y-32086078D01*
X30734798Y-32086074D01*
X31036818Y-31904354D01*
X31317420Y-31691046D01*
X31573314Y-31448650D01*
X31801501Y-31180008D01*
X31999305Y-30888269D01*
X32164407Y-30576854D01*
X32294871Y-30249414D01*
X32389168Y-29909788D01*
X32446191Y-29561957D01*
X32465274Y-29210000D01*
X32446191Y-28858043D01*
X32389168Y-28510212D01*
X32342048Y-28340500D01*
X32294873Y-28170591D01*
X32294872Y-28170589D01*
X32164411Y-27843155D01*
X32164402Y-27843137D01*
X31999304Y-27531730D01*
X31953184Y-27463708D01*
X31801501Y-27239992D01*
X31801497Y-27239987D01*
X31801494Y-27239983D01*
X31573314Y-26971350D01*
X31519368Y-26920250D01*
X31317420Y-26728954D01*
X31317413Y-26728948D01*
X31317410Y-26728946D01*
X31036815Y-26515644D01*
X30734802Y-26333928D01*
X30734789Y-26333921D01*
X30599952Y-26271539D01*
X30547374Y-26225525D01*
X30528020Y-26158389D01*
X30548034Y-26091448D01*
X30601063Y-26045953D01*
X30652018Y-26035000D01*
X37976000Y-26035000D01*
X38043039Y-26054685D01*
G37*
%TD.AperFunction*%
%TD*%
%TA.AperFunction,Conductor*%
%TO.N,15V*%
G36*
X58363039Y-26054685D02*
G01*
X58408794Y-26107489D01*
X58420000Y-26159000D01*
X58420000Y-31115000D01*
X69334033Y-31115000D01*
X69401072Y-31134685D01*
X69421714Y-31151319D01*
X74801181Y-36530786D01*
X74834666Y-36592109D01*
X74837500Y-36618467D01*
X74837500Y-38076411D01*
X74817815Y-38143450D01*
X74772518Y-38185465D01*
X74692431Y-38228806D01*
X74692422Y-38228812D01*
X74514761Y-38367092D01*
X74514756Y-38367097D01*
X74362284Y-38532723D01*
X74362276Y-38532734D01*
X74239140Y-38721207D01*
X74148703Y-38927385D01*
X74093436Y-39145628D01*
X74093434Y-39145640D01*
X74074844Y-39369994D01*
X74074844Y-39370005D01*
X74093434Y-39594359D01*
X74093436Y-39594371D01*
X74148703Y-39812614D01*
X74239140Y-40018792D01*
X74362276Y-40207265D01*
X74362284Y-40207276D01*
X74514756Y-40372902D01*
X74514760Y-40372906D01*
X74692424Y-40511189D01*
X74729453Y-40531228D01*
X74729457Y-40531230D01*
X74779047Y-40580450D01*
X74794155Y-40648666D01*
X74769985Y-40714222D01*
X74729457Y-40749339D01*
X74692699Y-40769231D01*
X74669129Y-40787575D01*
X74669129Y-40787576D01*
X75302057Y-41420504D01*
X75241919Y-41436619D01*
X75126080Y-41503498D01*
X75031498Y-41598080D01*
X74964619Y-41713919D01*
X74948504Y-41774057D01*
X74317156Y-41142709D01*
X74239581Y-41261448D01*
X74149178Y-41467546D01*
X74093930Y-41685718D01*
X74075346Y-41909994D01*
X74075346Y-41910005D01*
X74093930Y-42134281D01*
X74149178Y-42352453D01*
X74239580Y-42558548D01*
X74317157Y-42677289D01*
X74948504Y-42045941D01*
X74964619Y-42106081D01*
X75031498Y-42221920D01*
X75126080Y-42316502D01*
X75241919Y-42383381D01*
X75302057Y-42399494D01*
X74646370Y-43055181D01*
X74585047Y-43088666D01*
X74558693Y-43091500D01*
X74532131Y-43091500D01*
X74532123Y-43091501D01*
X74472516Y-43097908D01*
X74337671Y-43148202D01*
X74337664Y-43148206D01*
X74222455Y-43234452D01*
X74222452Y-43234455D01*
X74136206Y-43349664D01*
X74136202Y-43349671D01*
X74085908Y-43484517D01*
X74079501Y-43544116D01*
X74079501Y-43544123D01*
X74079500Y-43544135D01*
X74079500Y-45355870D01*
X74079501Y-45355876D01*
X74085908Y-45415483D01*
X74136202Y-45550328D01*
X74136206Y-45550335D01*
X74222452Y-45665544D01*
X74222455Y-45665547D01*
X74337664Y-45751793D01*
X74337671Y-45751797D01*
X74472517Y-45802091D01*
X74472516Y-45802091D01*
X74479444Y-45802835D01*
X74532127Y-45808500D01*
X76343872Y-45808499D01*
X76403483Y-45802091D01*
X76538331Y-45751796D01*
X76653546Y-45665546D01*
X76739796Y-45550331D01*
X76790091Y-45415483D01*
X76796500Y-45355873D01*
X76796499Y-43544128D01*
X76790091Y-43484517D01*
X76739796Y-43349669D01*
X76739795Y-43349668D01*
X76739793Y-43349664D01*
X76653547Y-43234455D01*
X76653544Y-43234452D01*
X76538335Y-43148206D01*
X76538328Y-43148202D01*
X76403482Y-43097908D01*
X76403483Y-43097908D01*
X76343883Y-43091501D01*
X76343881Y-43091500D01*
X76343873Y-43091500D01*
X76343865Y-43091500D01*
X76317310Y-43091500D01*
X76250271Y-43071815D01*
X76229629Y-43055181D01*
X75573942Y-42399495D01*
X75634081Y-42383381D01*
X75749920Y-42316502D01*
X75844502Y-42221920D01*
X75911381Y-42106081D01*
X75927495Y-42045942D01*
X76558841Y-42677289D01*
X76636415Y-42558555D01*
X76636420Y-42558547D01*
X76726821Y-42352453D01*
X76782069Y-42134281D01*
X76800654Y-41910005D01*
X76800654Y-41909994D01*
X76782069Y-41685718D01*
X76726821Y-41467546D01*
X76636417Y-41261446D01*
X76558841Y-41142709D01*
X75927494Y-41774056D01*
X75911381Y-41713919D01*
X75844502Y-41598080D01*
X75749920Y-41503498D01*
X75634081Y-41436619D01*
X75573942Y-41420505D01*
X76206870Y-40787577D01*
X76206870Y-40787576D01*
X76183296Y-40769229D01*
X76146542Y-40749338D01*
X76096952Y-40700118D01*
X76081845Y-40631901D01*
X76106017Y-40566345D01*
X76146541Y-40531230D01*
X76183576Y-40511189D01*
X76361240Y-40372906D01*
X76513722Y-40207268D01*
X76636860Y-40018791D01*
X76727296Y-39812616D01*
X76782564Y-39594368D01*
X76801156Y-39370000D01*
X76782564Y-39145632D01*
X76727296Y-38927384D01*
X76636860Y-38721209D01*
X76513722Y-38532732D01*
X76513719Y-38532729D01*
X76513715Y-38532723D01*
X76361243Y-38367097D01*
X76361238Y-38367092D01*
X76183577Y-38228812D01*
X76183576Y-38228811D01*
X76183573Y-38228809D01*
X76183568Y-38228806D01*
X76103482Y-38185465D01*
X76053892Y-38136246D01*
X76038500Y-38076411D01*
X76038500Y-36239315D01*
X76038500Y-36239313D01*
X75997577Y-36086586D01*
X75997577Y-36086585D01*
X75997577Y-36086584D01*
X75968639Y-36036465D01*
X75968637Y-36036462D01*
X75918520Y-35949654D01*
X75806716Y-35837850D01*
X75806715Y-35837849D01*
X75802385Y-35833519D01*
X75802374Y-35833509D01*
X70521319Y-30552454D01*
X70487834Y-30491131D01*
X70485000Y-30464773D01*
X70485000Y-26159000D01*
X70504685Y-26091961D01*
X70557489Y-26046206D01*
X70609000Y-26035000D01*
X81791000Y-26035000D01*
X81858039Y-26054685D01*
X81903794Y-26107489D01*
X81915000Y-26159000D01*
X81915000Y-75441000D01*
X81895315Y-75508039D01*
X81842511Y-75553794D01*
X81791000Y-75565000D01*
X71879000Y-75565000D01*
X71811961Y-75545315D01*
X71766206Y-75492511D01*
X71755000Y-75441000D01*
X71755000Y-64769994D01*
X74074844Y-64769994D01*
X74074844Y-64770005D01*
X74093434Y-64994359D01*
X74093436Y-64994371D01*
X74148703Y-65212614D01*
X74239140Y-65418792D01*
X74362276Y-65607265D01*
X74362284Y-65607276D01*
X74514756Y-65772902D01*
X74514760Y-65772906D01*
X74692424Y-65911189D01*
X74729453Y-65931228D01*
X74729457Y-65931230D01*
X74779047Y-65980450D01*
X74794155Y-66048666D01*
X74769985Y-66114222D01*
X74729457Y-66149339D01*
X74692699Y-66169231D01*
X74669129Y-66187575D01*
X74669129Y-66187576D01*
X75302057Y-66820504D01*
X75241919Y-66836619D01*
X75126080Y-66903498D01*
X75031498Y-66998080D01*
X74964619Y-67113919D01*
X74948504Y-67174057D01*
X74317156Y-66542709D01*
X74239581Y-66661448D01*
X74149178Y-66867546D01*
X74093930Y-67085718D01*
X74075346Y-67309994D01*
X74075346Y-67310005D01*
X74093930Y-67534281D01*
X74149178Y-67752453D01*
X74239580Y-67958548D01*
X74317157Y-68077289D01*
X74948504Y-67445941D01*
X74964619Y-67506081D01*
X75031498Y-67621920D01*
X75126080Y-67716502D01*
X75241919Y-67783381D01*
X75302057Y-67799494D01*
X74646370Y-68455181D01*
X74585047Y-68488666D01*
X74558693Y-68491500D01*
X74532131Y-68491500D01*
X74532123Y-68491501D01*
X74472516Y-68497908D01*
X74337671Y-68548202D01*
X74337664Y-68548206D01*
X74222455Y-68634452D01*
X74222452Y-68634455D01*
X74136206Y-68749664D01*
X74136202Y-68749671D01*
X74085908Y-68884517D01*
X74079501Y-68944116D01*
X74079501Y-68944123D01*
X74079500Y-68944135D01*
X74079500Y-70755870D01*
X74079501Y-70755876D01*
X74085908Y-70815483D01*
X74136202Y-70950328D01*
X74136206Y-70950335D01*
X74222452Y-71065544D01*
X74222455Y-71065547D01*
X74337664Y-71151793D01*
X74337671Y-71151797D01*
X74472517Y-71202091D01*
X74472516Y-71202091D01*
X74479444Y-71202835D01*
X74532127Y-71208500D01*
X76343872Y-71208499D01*
X76403483Y-71202091D01*
X76538331Y-71151796D01*
X76653546Y-71065546D01*
X76739796Y-70950331D01*
X76790091Y-70815483D01*
X76796500Y-70755873D01*
X76796499Y-68944128D01*
X76790091Y-68884517D01*
X76739796Y-68749669D01*
X76739795Y-68749668D01*
X76739793Y-68749664D01*
X76653547Y-68634455D01*
X76653544Y-68634452D01*
X76538335Y-68548206D01*
X76538328Y-68548202D01*
X76403482Y-68497908D01*
X76403483Y-68497908D01*
X76343883Y-68491501D01*
X76343881Y-68491500D01*
X76343873Y-68491500D01*
X76343865Y-68491500D01*
X76317310Y-68491500D01*
X76250271Y-68471815D01*
X76229629Y-68455181D01*
X75573942Y-67799495D01*
X75634081Y-67783381D01*
X75749920Y-67716502D01*
X75844502Y-67621920D01*
X75911381Y-67506081D01*
X75927494Y-67445942D01*
X76558841Y-68077289D01*
X76636415Y-67958555D01*
X76636420Y-67958547D01*
X76726821Y-67752453D01*
X76782069Y-67534281D01*
X76800654Y-67310005D01*
X76800654Y-67309994D01*
X76782069Y-67085718D01*
X76726821Y-66867546D01*
X76636417Y-66661446D01*
X76558841Y-66542709D01*
X75927494Y-67174056D01*
X75911381Y-67113919D01*
X75844502Y-66998080D01*
X75749920Y-66903498D01*
X75634081Y-66836619D01*
X75573942Y-66820505D01*
X76206870Y-66187577D01*
X76206870Y-66187576D01*
X76183296Y-66169229D01*
X76146542Y-66149338D01*
X76096952Y-66100118D01*
X76081845Y-66031901D01*
X76106017Y-65966345D01*
X76146541Y-65931230D01*
X76183576Y-65911189D01*
X76361240Y-65772906D01*
X76513722Y-65607268D01*
X76636860Y-65418791D01*
X76727296Y-65212616D01*
X76782564Y-64994368D01*
X76801156Y-64770000D01*
X76782564Y-64545632D01*
X76727296Y-64327384D01*
X76636860Y-64121209D01*
X76513722Y-63932732D01*
X76513719Y-63932729D01*
X76513715Y-63932723D01*
X76361243Y-63767097D01*
X76361238Y-63767092D01*
X76183577Y-63628812D01*
X76183572Y-63628808D01*
X75985580Y-63521661D01*
X75985577Y-63521659D01*
X75985574Y-63521658D01*
X75985571Y-63521657D01*
X75985569Y-63521656D01*
X75772637Y-63448556D01*
X75550569Y-63411500D01*
X75325431Y-63411500D01*
X75103362Y-63448556D01*
X74890430Y-63521656D01*
X74890419Y-63521661D01*
X74692427Y-63628808D01*
X74692422Y-63628812D01*
X74514761Y-63767092D01*
X74514756Y-63767097D01*
X74362284Y-63932723D01*
X74362276Y-63932734D01*
X74239140Y-64121207D01*
X74148703Y-64327385D01*
X74093436Y-64545628D01*
X74093434Y-64545640D01*
X74074844Y-64769994D01*
X71755000Y-64769994D01*
X71755000Y-46355000D01*
X70485000Y-46355000D01*
X68145200Y-46355000D01*
X68078161Y-46335315D01*
X68032406Y-46282511D01*
X68021200Y-46231000D01*
X68021200Y-43738800D01*
X65430400Y-43738800D01*
X65430400Y-45761100D01*
X65410715Y-45828139D01*
X65357911Y-45873894D01*
X65306400Y-45885100D01*
X64233600Y-45885100D01*
X64166561Y-45865415D01*
X64120806Y-45812611D01*
X64109600Y-45761100D01*
X64109600Y-43738800D01*
X61518800Y-43738800D01*
X61518800Y-46231000D01*
X61499115Y-46298039D01*
X61446311Y-46343794D01*
X61394800Y-46355000D01*
X54734000Y-46355000D01*
X54666961Y-46335315D01*
X54621206Y-46282511D01*
X54610000Y-46231000D01*
X54610000Y-26159000D01*
X54629685Y-26091961D01*
X54682489Y-26046206D01*
X54734000Y-26035000D01*
X58296000Y-26035000D01*
X58363039Y-26054685D01*
G37*
%TD.AperFunction*%
%TD*%
%TA.AperFunction,Conductor*%
%TO.N,GND*%
G36*
X55150488Y-46996294D02*
G01*
X55252203Y-47029999D01*
X55354991Y-47040500D01*
X56405008Y-47040499D01*
X56405016Y-47040498D01*
X56405019Y-47040498D01*
X56461302Y-47034748D01*
X56507797Y-47029999D01*
X56609512Y-46996294D01*
X56648516Y-46990000D01*
X61394800Y-46990000D01*
X61461839Y-47009685D01*
X61507594Y-47062489D01*
X61518800Y-47114000D01*
X61518800Y-50241200D01*
X64109600Y-50241200D01*
X64109600Y-48218900D01*
X64129285Y-48151861D01*
X64182089Y-48106106D01*
X64233600Y-48094900D01*
X65306400Y-48094900D01*
X65373439Y-48114585D01*
X65419194Y-48167389D01*
X65430400Y-48218900D01*
X65430400Y-50241200D01*
X68021200Y-50241200D01*
X68021200Y-47114000D01*
X68040885Y-47046961D01*
X68093689Y-47001206D01*
X68145200Y-46990000D01*
X70361000Y-46990000D01*
X70428039Y-47009685D01*
X70473794Y-47062489D01*
X70485000Y-47114000D01*
X70485000Y-75441000D01*
X70465315Y-75508039D01*
X70412511Y-75553794D01*
X70361000Y-75565000D01*
X41910000Y-75565000D01*
X30652018Y-75565000D01*
X30584979Y-75545315D01*
X30539224Y-75492511D01*
X30529280Y-75423353D01*
X30558305Y-75359797D01*
X30599952Y-75328461D01*
X30734789Y-75266078D01*
X30734798Y-75266074D01*
X31036818Y-75084354D01*
X31317420Y-74871046D01*
X31573314Y-74628650D01*
X31801501Y-74360008D01*
X31999305Y-74068269D01*
X32164407Y-73756854D01*
X32294871Y-73429414D01*
X32316175Y-73352686D01*
X32323180Y-73327453D01*
X32389168Y-73089788D01*
X32446191Y-72741957D01*
X32465274Y-72390000D01*
X32446191Y-72038043D01*
X32389168Y-71690212D01*
X32346704Y-71537271D01*
X32294873Y-71350591D01*
X32294872Y-71350589D01*
X32164411Y-71023155D01*
X32164402Y-71023137D01*
X32144381Y-70985373D01*
X31999305Y-70711731D01*
X31801501Y-70419992D01*
X31801497Y-70419987D01*
X31801494Y-70419983D01*
X31573314Y-70151350D01*
X31317420Y-69908954D01*
X31317413Y-69908948D01*
X31317410Y-69908946D01*
X31036815Y-69695644D01*
X30734802Y-69513928D01*
X30734789Y-69513921D01*
X30414911Y-69365929D01*
X30414906Y-69365928D01*
X30414903Y-69365927D01*
X30414901Y-69365926D01*
X30308432Y-69330052D01*
X30080880Y-69253381D01*
X29736643Y-69177608D01*
X29386238Y-69139500D01*
X29386237Y-69139500D01*
X29033763Y-69139500D01*
X29033761Y-69139500D01*
X28683356Y-69177608D01*
X28339119Y-69253381D01*
X28005093Y-69365928D01*
X28005088Y-69365929D01*
X27685210Y-69513921D01*
X27685197Y-69513928D01*
X27383184Y-69695644D01*
X27102589Y-69908946D01*
X27102580Y-69908954D01*
X26846685Y-70151350D01*
X26618505Y-70419983D01*
X26618498Y-70419993D01*
X26420695Y-70711730D01*
X26268555Y-70998696D01*
X26219762Y-71048706D01*
X26151677Y-71064397D01*
X26085917Y-71040787D01*
X26043360Y-70985373D01*
X26035000Y-70940613D01*
X26035000Y-52600014D01*
X27995000Y-52600014D01*
X27995000Y-53800000D01*
X29190879Y-53800000D01*
X29171901Y-53845818D01*
X29145000Y-53981056D01*
X29145000Y-54118944D01*
X29171901Y-54254182D01*
X29190879Y-54300000D01*
X27995000Y-54300000D01*
X27995000Y-55499985D01*
X28005493Y-55602689D01*
X28005494Y-55602696D01*
X28060641Y-55769118D01*
X28060643Y-55769123D01*
X28152684Y-55918344D01*
X28276655Y-56042315D01*
X28425876Y-56134356D01*
X28425881Y-56134358D01*
X28592303Y-56189505D01*
X28592310Y-56189506D01*
X28695014Y-56199999D01*
X28695027Y-56200000D01*
X29595000Y-56200000D01*
X29595000Y-54704120D01*
X29640818Y-54723099D01*
X29776056Y-54750000D01*
X29913944Y-54750000D01*
X30049182Y-54723099D01*
X30095000Y-54704120D01*
X30095000Y-56200000D01*
X30994973Y-56200000D01*
X30994985Y-56199999D01*
X31097689Y-56189506D01*
X31097696Y-56189505D01*
X31264118Y-56134358D01*
X31264123Y-56134356D01*
X31413344Y-56042315D01*
X31537315Y-55918344D01*
X31629356Y-55769123D01*
X31629358Y-55769118D01*
X31684505Y-55602696D01*
X31684506Y-55602689D01*
X31694999Y-55499985D01*
X31695000Y-55499972D01*
X31695000Y-54300000D01*
X30499121Y-54300000D01*
X30518099Y-54254182D01*
X30545000Y-54118944D01*
X30545000Y-53981056D01*
X30518099Y-53845818D01*
X30499121Y-53800000D01*
X31695000Y-53800000D01*
X31695000Y-52600027D01*
X31694999Y-52600014D01*
X31684506Y-52497310D01*
X31684505Y-52497303D01*
X31629358Y-52330881D01*
X31629356Y-52330876D01*
X31537315Y-52181655D01*
X31413344Y-52057684D01*
X31264123Y-51965643D01*
X31264118Y-51965641D01*
X31097696Y-51910494D01*
X31097689Y-51910493D01*
X30994985Y-51900000D01*
X30095000Y-51900000D01*
X30095000Y-53395879D01*
X30049182Y-53376901D01*
X29913944Y-53350000D01*
X29776056Y-53350000D01*
X29640818Y-53376901D01*
X29595000Y-53395879D01*
X29595000Y-51900000D01*
X28695014Y-51900000D01*
X28592310Y-51910493D01*
X28592303Y-51910494D01*
X28425881Y-51965641D01*
X28425876Y-51965643D01*
X28276655Y-52057684D01*
X28152684Y-52181655D01*
X28060643Y-52330876D01*
X28060641Y-52330881D01*
X28005494Y-52497303D01*
X28005493Y-52497310D01*
X27995000Y-52600014D01*
X26035000Y-52600014D01*
X26035000Y-51559000D01*
X26054685Y-51491961D01*
X26107489Y-51446206D01*
X26159000Y-51435000D01*
X41786000Y-51435000D01*
X41853039Y-51454685D01*
X41898794Y-51507489D01*
X41910000Y-51559000D01*
X41910000Y-55104807D01*
X41890650Y-55170702D01*
X41890823Y-55170809D01*
X41890434Y-55171438D01*
X41890315Y-55171846D01*
X41889345Y-55173204D01*
X41798001Y-55321294D01*
X41797996Y-55321305D01*
X41744651Y-55482290D01*
X41734500Y-55581647D01*
X41734500Y-56178337D01*
X41734501Y-56178355D01*
X41744650Y-56277707D01*
X41744651Y-56277710D01*
X41797996Y-56438694D01*
X41798001Y-56438705D01*
X41890823Y-56589191D01*
X41888294Y-56590750D01*
X41909405Y-56643061D01*
X41910000Y-56655192D01*
X41910000Y-57009807D01*
X41890650Y-57075702D01*
X41890823Y-57075809D01*
X41890434Y-57076438D01*
X41890315Y-57076846D01*
X41889345Y-57078204D01*
X41798001Y-57226294D01*
X41797996Y-57226305D01*
X41744651Y-57387290D01*
X41734500Y-57486647D01*
X41734500Y-58083337D01*
X41734501Y-58083355D01*
X41744650Y-58182707D01*
X41744651Y-58182710D01*
X41797996Y-58343694D01*
X41798001Y-58343705D01*
X41890823Y-58494191D01*
X41888294Y-58495750D01*
X41909405Y-58548061D01*
X41910000Y-58560192D01*
X41910000Y-60325000D01*
X57150000Y-60325000D01*
X57150000Y-55880000D01*
X54140062Y-55880000D01*
X54073023Y-55860315D01*
X54027268Y-55807511D01*
X54017324Y-55738353D01*
X54021677Y-55719110D01*
X54044086Y-55647196D01*
X54050500Y-55576616D01*
X54050500Y-54913384D01*
X54044086Y-54842804D01*
X53993478Y-54680394D01*
X53992880Y-54679404D01*
X53992631Y-54678513D01*
X53990399Y-54673552D01*
X53991154Y-54673212D01*
X53975000Y-54615259D01*
X53975000Y-52870062D01*
X53994685Y-52803023D01*
X54047489Y-52757268D01*
X54116647Y-52747324D01*
X54135888Y-52751676D01*
X54207804Y-52774086D01*
X54278384Y-52780500D01*
X54278387Y-52780500D01*
X54941613Y-52780500D01*
X54941616Y-52780500D01*
X55012196Y-52774086D01*
X55174606Y-52723478D01*
X55175594Y-52722880D01*
X55176485Y-52722632D01*
X55181445Y-52720400D01*
X55181784Y-52721155D01*
X55239740Y-52705000D01*
X55880000Y-52705000D01*
X55880000Y-50800000D01*
X52705000Y-50800000D01*
X52691808Y-50813192D01*
X52630485Y-50846677D01*
X52604127Y-50849511D01*
X51484963Y-50849511D01*
X51441630Y-50841693D01*
X51339282Y-50803519D01*
X51339283Y-50803519D01*
X51279683Y-50797112D01*
X51279681Y-50797111D01*
X51279673Y-50797111D01*
X51279664Y-50797111D01*
X49913929Y-50797111D01*
X49913923Y-50797112D01*
X49854316Y-50803519D01*
X49719471Y-50853813D01*
X49719464Y-50853817D01*
X49604257Y-50940062D01*
X49604248Y-50940071D01*
X49556158Y-51004311D01*
X49500224Y-51046182D01*
X49456892Y-51054000D01*
X49149000Y-51054000D01*
X49149000Y-52962000D01*
X49129315Y-53029039D01*
X49076511Y-53074794D01*
X49025000Y-53086000D01*
X44066000Y-53086000D01*
X43998961Y-53066315D01*
X43953206Y-53013511D01*
X43942000Y-52962000D01*
X43942000Y-52226910D01*
X43961685Y-52159871D01*
X44014489Y-52114116D01*
X44066000Y-52102910D01*
X45336071Y-52102910D01*
X45336072Y-52102910D01*
X45395683Y-52096502D01*
X45530531Y-52046207D01*
X45645746Y-51959957D01*
X45690817Y-51899750D01*
X45716316Y-51865689D01*
X45772250Y-51823818D01*
X45815582Y-51816000D01*
X46101000Y-51816000D01*
X46101000Y-47114000D01*
X46120685Y-47046961D01*
X46173489Y-47001206D01*
X46225000Y-46990000D01*
X55111484Y-46990000D01*
X55150488Y-46996294D01*
G37*
%TD.AperFunction*%
%TD*%
M02*
