%TF.GenerationSoftware,KiCad,Pcbnew,8.0.3*%
%TF.CreationDate,2024-11-26T12:10:15-08:00*%
%TF.ProjectId,IlluminationControlBoard,496c6c75-6d69-46e6-9174-696f6e436f6e,rev?*%
%TF.SameCoordinates,Original*%
%TF.FileFunction,Soldermask,Top*%
%TF.FilePolarity,Negative*%
%FSLAX46Y46*%
G04 Gerber Fmt 4.6, Leading zero omitted, Abs format (unit mm)*
G04 Created by KiCad (PCBNEW 8.0.3) date 2024-11-26 12:10:15*
%MOMM*%
%LPD*%
G01*
G04 APERTURE LIST*
G04 Aperture macros list*
%AMRoundRect*
0 Rectangle with rounded corners*
0 $1 Rounding radius*
0 $2 $3 $4 $5 $6 $7 $8 $9 X,Y pos of 4 corners*
0 Add a 4 corners polygon primitive as box body*
4,1,4,$2,$3,$4,$5,$6,$7,$8,$9,$2,$3,0*
0 Add four circle primitives for the rounded corners*
1,1,$1+$1,$2,$3*
1,1,$1+$1,$4,$5*
1,1,$1+$1,$6,$7*
1,1,$1+$1,$8,$9*
0 Add four rect primitives between the rounded corners*
20,1,$1+$1,$2,$3,$4,$5,0*
20,1,$1+$1,$4,$5,$6,$7,0*
20,1,$1+$1,$6,$7,$8,$9,0*
20,1,$1+$1,$8,$9,$2,$3,0*%
G04 Aperture macros list end*
%ADD10C,0.000000*%
%ADD11C,5.500000*%
%ADD12RoundRect,0.250000X-1.000000X1.400000X-1.000000X-1.400000X1.000000X-1.400000X1.000000X1.400000X0*%
%ADD13C,3.500000*%
%ADD14C,3.000000*%
%ADD15R,1.716000X1.716000*%
%ADD16C,1.716000*%
%ADD17RoundRect,0.250000X-0.475000X0.250000X-0.475000X-0.250000X0.475000X-0.250000X0.475000X0.250000X0*%
%ADD18RoundRect,0.250000X0.620000X-0.620000X0.620000X0.620000X-0.620000X0.620000X-0.620000X-0.620000X0*%
%ADD19C,1.740000*%
%ADD20RoundRect,0.200000X-0.200000X-0.275000X0.200000X-0.275000X0.200000X0.275000X-0.200000X0.275000X0*%
%ADD21RoundRect,0.225000X-0.225000X-0.250000X0.225000X-0.250000X0.225000X0.250000X-0.225000X0.250000X0*%
%ADD22RoundRect,0.225000X0.225000X0.250000X-0.225000X0.250000X-0.225000X-0.250000X0.225000X-0.250000X0*%
%ADD23RoundRect,0.225000X-0.250000X0.225000X-0.250000X-0.225000X0.250000X-0.225000X0.250000X0.225000X0*%
%ADD24RoundRect,0.200000X0.200000X0.275000X-0.200000X0.275000X-0.200000X-0.275000X0.200000X-0.275000X0*%
%ADD25RoundRect,0.250001X1.099999X1.399999X-1.099999X1.399999X-1.099999X-1.399999X1.099999X-1.399999X0*%
%ADD26O,2.700000X3.300000*%
%ADD27RoundRect,0.475000X-0.475000X-2.075000X0.475000X-2.075000X0.475000X2.075000X-0.475000X2.075000X0*%
%ADD28RoundRect,0.200000X-0.275000X0.200000X-0.275000X-0.200000X0.275000X-0.200000X0.275000X0.200000X0*%
%ADD29RoundRect,0.250000X0.475000X-0.250000X0.475000X0.250000X-0.475000X0.250000X-0.475000X-0.250000X0*%
%ADD30RoundRect,0.250000X-0.620000X-0.620000X0.620000X-0.620000X0.620000X0.620000X-0.620000X0.620000X0*%
%ADD31R,1.270000X0.304800*%
%ADD32R,2.460000X2.310000*%
%ADD33R,1.219200X3.098800*%
G04 APERTURE END LIST*
D10*
%TO.C,U3*%
G36*
X47450000Y-49645000D02*
G01*
X47150000Y-49645000D01*
X47150000Y-49395000D01*
X47450000Y-49395000D01*
X47450000Y-49645000D01*
G37*
G36*
X47450000Y-52205000D02*
G01*
X47150000Y-52205000D01*
X47150000Y-51955000D01*
X47450000Y-51955000D01*
X47450000Y-52205000D01*
G37*
G36*
X48100000Y-49645000D02*
G01*
X47800000Y-49645000D01*
X47800000Y-49395000D01*
X48100000Y-49395000D01*
X48100000Y-49645000D01*
G37*
G36*
X48100000Y-52205000D02*
G01*
X47800000Y-52205000D01*
X47800000Y-51955000D01*
X48100000Y-51955000D01*
X48100000Y-52205000D01*
G37*
%TD*%
D11*
%TO.C,REF\u002A\u002A*%
X29210000Y-29210000D03*
%TD*%
D12*
%TO.C,D1*%
X56105000Y-38100000D03*
X49305000Y-38100000D03*
%TD*%
D11*
%TO.C,REF\u002A\u002A*%
X104140000Y-72390000D03*
%TD*%
D13*
%TO.C,U2*%
X85090000Y-53467000D03*
D14*
X85090000Y-73533000D03*
D15*
X75438000Y-69850000D03*
D16*
X75438000Y-67310000D03*
X75438000Y-64770000D03*
X95250000Y-64770000D03*
D15*
X95250000Y-67310000D03*
%TD*%
D17*
%TO.C,C1*%
X36195000Y-49850000D03*
X36195000Y-51750000D03*
%TD*%
D18*
%TO.C,J2*%
X102755000Y-64770000D03*
D19*
X102755000Y-62230000D03*
%TD*%
D20*
%TO.C,R3*%
X53150000Y-57150000D03*
X54800000Y-57150000D03*
%TD*%
D21*
%TO.C,C3*%
X41135000Y-55880000D03*
X42685000Y-55880000D03*
%TD*%
D11*
%TO.C,REF\u002A\u002A*%
X104140000Y-29210000D03*
%TD*%
D22*
%TO.C,C4*%
X48400000Y-55880000D03*
X46850000Y-55880000D03*
%TD*%
D23*
%TO.C,C2*%
X40640000Y-50025000D03*
X40640000Y-51575000D03*
%TD*%
D24*
%TO.C,R4*%
X54800000Y-55245000D03*
X53150000Y-55245000D03*
%TD*%
D25*
%TO.C,J3*%
X29845000Y-54050000D03*
D26*
X29845000Y-48550000D03*
%TD*%
D27*
%TO.C,L1*%
X36635000Y-38100000D03*
X40835000Y-38100000D03*
%TD*%
D28*
%TO.C,R1*%
X54610000Y-51880000D03*
X54610000Y-53530000D03*
%TD*%
D11*
%TO.C,REF\u002A\u002A*%
X29210000Y-72390000D03*
%TD*%
D29*
%TO.C,C7*%
X55880000Y-47940000D03*
X55880000Y-46040000D03*
%TD*%
D22*
%TO.C,C5*%
X42685000Y-57785000D03*
X41135000Y-57785000D03*
%TD*%
D18*
%TO.C,J1*%
X102755000Y-39370000D03*
D19*
X102755000Y-36830000D03*
%TD*%
D30*
%TO.C,J4*%
X61595000Y-29210000D03*
D19*
X64135000Y-29210000D03*
X66675000Y-29210000D03*
%TD*%
D13*
%TO.C,U1*%
X85090000Y-28067000D03*
D14*
X85090000Y-48133000D03*
D15*
X75438000Y-44450000D03*
D16*
X75438000Y-41910000D03*
X75438000Y-39370000D03*
X95250000Y-39370000D03*
D15*
X95250000Y-41910000D03*
%TD*%
D31*
%TO.C,U3*%
X44653200Y-48849966D03*
X44653200Y-49499977D03*
X44653200Y-50149989D03*
X44653200Y-50800000D03*
X44653200Y-51450011D03*
X44653200Y-52100023D03*
X44653200Y-52750034D03*
X50596800Y-52750034D03*
X50596800Y-52100023D03*
X50596800Y-51450011D03*
X50596800Y-50800000D03*
X50596800Y-50149989D03*
X50596800Y-49499977D03*
X50596800Y-48849966D03*
D32*
X47625000Y-50800000D03*
%TD*%
D33*
%TO.C,C6*%
X64770000Y-44284900D03*
X64770000Y-49695100D03*
%TD*%
D24*
%TO.C,R2*%
X48450000Y-57785000D03*
X46800000Y-57785000D03*
%TD*%
M02*
