%TF.GenerationSoftware,KiCad,Pcbnew,8.0.3*%
%TF.CreationDate,2024-11-26T12:10:15-08:00*%
%TF.ProjectId,IlluminationControlBoard,496c6c75-6d69-46e6-9174-696f6e436f6e,rev?*%
%TF.SameCoordinates,Original*%
%TF.FileFunction,Copper,L2,Bot*%
%TF.FilePolarity,Positive*%
%FSLAX46Y46*%
G04 Gerber Fmt 4.6, Leading zero omitted, Abs format (unit mm)*
G04 Created by KiCad (PCBNEW 8.0.3) date 2024-11-26 12:10:15*
%MOMM*%
%LPD*%
G01*
G04 APERTURE LIST*
G04 Aperture macros list*
%AMRoundRect*
0 Rectangle with rounded corners*
0 $1 Rounding radius*
0 $2 $3 $4 $5 $6 $7 $8 $9 X,Y pos of 4 corners*
0 Add a 4 corners polygon primitive as box body*
4,1,4,$2,$3,$4,$5,$6,$7,$8,$9,$2,$3,0*
0 Add four circle primitives for the rounded corners*
1,1,$1+$1,$2,$3*
1,1,$1+$1,$4,$5*
1,1,$1+$1,$6,$7*
1,1,$1+$1,$8,$9*
0 Add four rect primitives between the rounded corners*
20,1,$1+$1,$2,$3,$4,$5,0*
20,1,$1+$1,$4,$5,$6,$7,0*
20,1,$1+$1,$6,$7,$8,$9,0*
20,1,$1+$1,$8,$9,$2,$3,0*%
G04 Aperture macros list end*
%TA.AperFunction,ComponentPad*%
%ADD10C,5.500000*%
%TD*%
%TA.AperFunction,WasherPad*%
%ADD11C,3.500000*%
%TD*%
%TA.AperFunction,WasherPad*%
%ADD12C,3.000000*%
%TD*%
%TA.AperFunction,ComponentPad*%
%ADD13R,1.716000X1.716000*%
%TD*%
%TA.AperFunction,ComponentPad*%
%ADD14C,1.716000*%
%TD*%
%TA.AperFunction,ComponentPad*%
%ADD15RoundRect,0.250000X0.620000X-0.620000X0.620000X0.620000X-0.620000X0.620000X-0.620000X-0.620000X0*%
%TD*%
%TA.AperFunction,ComponentPad*%
%ADD16C,1.740000*%
%TD*%
%TA.AperFunction,ComponentPad*%
%ADD17RoundRect,0.250001X1.099999X1.399999X-1.099999X1.399999X-1.099999X-1.399999X1.099999X-1.399999X0*%
%TD*%
%TA.AperFunction,ComponentPad*%
%ADD18O,2.700000X3.300000*%
%TD*%
%TA.AperFunction,ComponentPad*%
%ADD19RoundRect,0.250000X-0.620000X-0.620000X0.620000X-0.620000X0.620000X0.620000X-0.620000X0.620000X0*%
%TD*%
%TA.AperFunction,ViaPad*%
%ADD20C,0.600000*%
%TD*%
%TA.AperFunction,Conductor*%
%ADD21C,0.200000*%
%TD*%
G04 APERTURE END LIST*
D10*
%TO.P,REF\u002A\u002A,1*%
%TO.N,N/C*%
X29210000Y-29210000D03*
%TD*%
%TO.P,REF\u002A\u002A,1*%
%TO.N,N/C*%
X104140000Y-72390000D03*
%TD*%
D11*
%TO.P,U2,*%
%TO.N,*%
X85090000Y-53467000D03*
D12*
X85090000Y-73533000D03*
D13*
%TO.P,U2,1,GND*%
%TO.N,GND*%
X75438000Y-69850000D03*
D14*
%TO.P,U2,2,VIN*%
%TO.N,15V*%
X75438000Y-67310000D03*
%TO.P,U2,3,PWM*%
%TO.N,L2_PWM*%
X75438000Y-64770000D03*
%TO.P,U2,4,LED+*%
%TO.N,L2_PLUS*%
X95250000Y-64770000D03*
D13*
%TO.P,U2,5,LED-*%
%TO.N,L2_MINUS*%
X95250000Y-67310000D03*
%TD*%
D15*
%TO.P,J2,1,Pin_1*%
%TO.N,L2_MINUS*%
X102755000Y-64770000D03*
D16*
%TO.P,J2,2,Pin_2*%
%TO.N,L2_PLUS*%
X102755000Y-62230000D03*
%TD*%
D10*
%TO.P,REF\u002A\u002A,1*%
%TO.N,N/C*%
X104140000Y-29210000D03*
%TD*%
D17*
%TO.P,J3,1,Pin_1*%
%TO.N,GND*%
X29845000Y-54050000D03*
D18*
%TO.P,J3,2,Pin_2*%
%TO.N,12V*%
X29845000Y-48550000D03*
%TD*%
D10*
%TO.P,REF\u002A\u002A,1*%
%TO.N,N/C*%
X29210000Y-72390000D03*
%TD*%
D15*
%TO.P,J1,1,Pin_1*%
%TO.N,L1_MINUS*%
X102755000Y-39370000D03*
D16*
%TO.P,J1,2,Pin_2*%
%TO.N,L1_PLUS*%
X102755000Y-36830000D03*
%TD*%
D19*
%TO.P,J4,1,Pin_1*%
%TO.N,GND*%
X61595000Y-29210000D03*
D16*
%TO.P,J4,2,Pin_2*%
%TO.N,L1_PWM*%
X64135000Y-29210000D03*
%TO.P,J4,3,Pin_3*%
%TO.N,L2_PWM*%
X66675000Y-29210000D03*
%TD*%
D11*
%TO.P,U1,*%
%TO.N,*%
X85090000Y-28067000D03*
D12*
X85090000Y-48133000D03*
D13*
%TO.P,U1,1,GND*%
%TO.N,GND*%
X75438000Y-44450000D03*
D14*
%TO.P,U1,2,VIN*%
%TO.N,15V*%
X75438000Y-41910000D03*
%TO.P,U1,3,PWM*%
%TO.N,L1_PWM*%
X75438000Y-39370000D03*
%TO.P,U1,4,LED+*%
%TO.N,L1_PLUS*%
X95250000Y-39370000D03*
D13*
%TO.P,U1,5,LED-*%
%TO.N,L1_MINUS*%
X95250000Y-41910000D03*
%TD*%
D20*
%TO.N,GND*%
X46863000Y-50165000D03*
X47625000Y-50800000D03*
X46863000Y-51562000D03*
X48387000Y-51562000D03*
X48387000Y-50165000D03*
%TO.N,15V*%
X53975000Y-59055000D03*
X55880000Y-43180000D03*
%TD*%
D21*
%TO.N,15V*%
X53975000Y-45085000D02*
X55880000Y-43180000D01*
X53975000Y-59055000D02*
X53975000Y-45085000D01*
%TO.N,L2_PWM*%
X66675000Y-56007000D02*
X75438000Y-64770000D01*
X66675000Y-29210000D02*
X66675000Y-56007000D01*
%TD*%
%TA.AperFunction,Conductor*%
%TO.N,GND*%
G36*
X83738575Y-26054685D02*
G01*
X83784330Y-26107489D01*
X83794274Y-26176647D01*
X83765249Y-26240203D01*
X83740427Y-26262102D01*
X83717041Y-26277727D01*
X83495241Y-26472241D01*
X83300728Y-26694041D01*
X83136828Y-26939334D01*
X83006349Y-27203919D01*
X82911521Y-27483269D01*
X82911518Y-27483283D01*
X82853968Y-27772609D01*
X82853964Y-27772636D01*
X82834671Y-28066992D01*
X82834671Y-28067007D01*
X82853964Y-28361363D01*
X82853965Y-28361373D01*
X82853966Y-28361380D01*
X82853968Y-28361390D01*
X82911518Y-28650716D01*
X82911521Y-28650730D01*
X83006349Y-28930080D01*
X83136825Y-29194660D01*
X83136829Y-29194667D01*
X83300725Y-29439955D01*
X83495241Y-29661758D01*
X83717044Y-29856274D01*
X83906250Y-29982697D01*
X83962335Y-30020172D01*
X84226923Y-30150652D01*
X84506278Y-30245481D01*
X84795620Y-30303034D01*
X84823888Y-30304886D01*
X85089993Y-30322329D01*
X85090000Y-30322329D01*
X85090007Y-30322329D01*
X85325675Y-30306881D01*
X85384380Y-30303034D01*
X85673722Y-30245481D01*
X85953077Y-30150652D01*
X86217665Y-30020172D01*
X86462957Y-29856273D01*
X86684758Y-29661758D01*
X86879273Y-29439957D01*
X87043172Y-29194665D01*
X87173652Y-28930077D01*
X87268481Y-28650722D01*
X87326034Y-28361380D01*
X87331966Y-28270875D01*
X87345329Y-28067007D01*
X87345329Y-28066992D01*
X87326035Y-27772636D01*
X87326034Y-27772620D01*
X87268481Y-27483278D01*
X87173652Y-27203923D01*
X87043172Y-26939336D01*
X86879273Y-26694043D01*
X86836655Y-26645447D01*
X86684758Y-26472241D01*
X86462958Y-26277727D01*
X86439573Y-26262102D01*
X86394768Y-26208489D01*
X86386061Y-26139164D01*
X86416216Y-26076137D01*
X86475659Y-26039418D01*
X86508464Y-26035000D01*
X102697982Y-26035000D01*
X102765021Y-26054685D01*
X102810776Y-26107489D01*
X102820720Y-26176647D01*
X102791695Y-26240203D01*
X102750048Y-26271539D01*
X102615210Y-26333921D01*
X102615197Y-26333928D01*
X102313184Y-26515644D01*
X102032589Y-26728946D01*
X102032580Y-26728954D01*
X101776685Y-26971350D01*
X101548505Y-27239983D01*
X101548498Y-27239993D01*
X101350695Y-27531730D01*
X101185597Y-27843137D01*
X101185588Y-27843155D01*
X101055127Y-28170589D01*
X101055126Y-28170591D01*
X100960834Y-28510203D01*
X100960833Y-28510206D01*
X100903808Y-28858045D01*
X100884726Y-29209997D01*
X100884726Y-29210002D01*
X100903808Y-29561954D01*
X100960833Y-29909793D01*
X100960834Y-29909796D01*
X101055126Y-30249408D01*
X101055127Y-30249410D01*
X101185588Y-30576844D01*
X101185597Y-30576862D01*
X101350695Y-30888269D01*
X101548498Y-31180006D01*
X101548505Y-31180016D01*
X101776685Y-31448649D01*
X101776686Y-31448650D01*
X102032580Y-31691046D01*
X102313182Y-31904354D01*
X102615202Y-32086074D01*
X102615206Y-32086075D01*
X102615210Y-32086078D01*
X102935088Y-32234070D01*
X102935092Y-32234070D01*
X102935099Y-32234074D01*
X103269122Y-32346619D01*
X103613355Y-32422391D01*
X103963763Y-32460500D01*
X103963769Y-32460500D01*
X104316231Y-32460500D01*
X104316237Y-32460500D01*
X104666645Y-32422391D01*
X105010878Y-32346619D01*
X105344901Y-32234074D01*
X105344908Y-32234070D01*
X105344911Y-32234070D01*
X105664789Y-32086078D01*
X105664798Y-32086074D01*
X105966818Y-31904354D01*
X106247420Y-31691046D01*
X106503314Y-31448650D01*
X106731501Y-31180008D01*
X106929305Y-30888269D01*
X107081445Y-30601303D01*
X107130238Y-30551294D01*
X107198323Y-30535602D01*
X107264083Y-30559212D01*
X107306640Y-30614626D01*
X107315000Y-30659386D01*
X107315000Y-70940613D01*
X107295315Y-71007652D01*
X107242511Y-71053407D01*
X107173353Y-71063351D01*
X107109797Y-71034326D01*
X107081445Y-70998696D01*
X106929304Y-70711730D01*
X106731501Y-70419992D01*
X106731497Y-70419987D01*
X106731494Y-70419983D01*
X106503314Y-70151350D01*
X106247420Y-69908954D01*
X106247413Y-69908948D01*
X106247410Y-69908946D01*
X105966815Y-69695644D01*
X105664802Y-69513928D01*
X105664789Y-69513921D01*
X105344911Y-69365929D01*
X105344906Y-69365928D01*
X105344903Y-69365927D01*
X105344901Y-69365926D01*
X105238432Y-69330052D01*
X105010880Y-69253381D01*
X104666643Y-69177608D01*
X104316238Y-69139500D01*
X104316237Y-69139500D01*
X103963763Y-69139500D01*
X103963761Y-69139500D01*
X103613356Y-69177608D01*
X103269119Y-69253381D01*
X102935093Y-69365928D01*
X102935088Y-69365929D01*
X102615210Y-69513921D01*
X102615197Y-69513928D01*
X102313184Y-69695644D01*
X102032589Y-69908946D01*
X102032580Y-69908954D01*
X101776685Y-70151350D01*
X101548505Y-70419983D01*
X101548498Y-70419993D01*
X101350695Y-70711730D01*
X101185597Y-71023137D01*
X101185588Y-71023155D01*
X101055127Y-71350589D01*
X101055126Y-71350591D01*
X100960834Y-71690203D01*
X100960833Y-71690206D01*
X100903808Y-72038045D01*
X100884726Y-72389997D01*
X100884726Y-72390002D01*
X100903808Y-72741954D01*
X100960833Y-73089793D01*
X100960834Y-73089796D01*
X101055126Y-73429408D01*
X101055127Y-73429410D01*
X101185588Y-73756844D01*
X101185597Y-73756862D01*
X101218240Y-73818433D01*
X101350695Y-74068269D01*
X101431780Y-74187861D01*
X101548498Y-74360006D01*
X101548505Y-74360016D01*
X101776685Y-74628649D01*
X101776686Y-74628650D01*
X102032580Y-74871046D01*
X102313182Y-75084354D01*
X102615202Y-75266074D01*
X102615206Y-75266075D01*
X102615210Y-75266078D01*
X102750048Y-75328461D01*
X102802626Y-75374475D01*
X102821980Y-75441611D01*
X102801966Y-75508552D01*
X102748937Y-75554047D01*
X102697982Y-75565000D01*
X86028737Y-75565000D01*
X85961698Y-75545315D01*
X85915943Y-75492511D01*
X85905999Y-75423353D01*
X85935024Y-75359797D01*
X85969310Y-75332168D01*
X86090356Y-75266071D01*
X86174315Y-75220226D01*
X86403395Y-75048739D01*
X86605739Y-74846395D01*
X86777226Y-74617315D01*
X86914367Y-74366161D01*
X87014369Y-74098046D01*
X87075196Y-73818428D01*
X87095610Y-73533000D01*
X87075196Y-73247572D01*
X87040873Y-73089793D01*
X87014371Y-72967962D01*
X87014370Y-72967960D01*
X87014369Y-72967954D01*
X86914367Y-72699839D01*
X86777226Y-72448685D01*
X86777224Y-72448682D01*
X86605745Y-72219612D01*
X86605729Y-72219594D01*
X86403405Y-72017270D01*
X86403387Y-72017254D01*
X86174317Y-71845775D01*
X86174309Y-71845770D01*
X85923166Y-71708635D01*
X85923167Y-71708635D01*
X85815915Y-71668632D01*
X85655046Y-71608631D01*
X85655043Y-71608630D01*
X85655037Y-71608628D01*
X85375433Y-71547804D01*
X85090001Y-71527390D01*
X85089999Y-71527390D01*
X84804566Y-71547804D01*
X84524962Y-71608628D01*
X84256833Y-71708635D01*
X84005690Y-71845770D01*
X84005682Y-71845775D01*
X83776612Y-72017254D01*
X83776594Y-72017270D01*
X83574270Y-72219594D01*
X83574254Y-72219612D01*
X83402775Y-72448682D01*
X83402770Y-72448690D01*
X83265635Y-72699833D01*
X83165628Y-72967962D01*
X83104804Y-73247566D01*
X83084390Y-73532998D01*
X83084390Y-73533001D01*
X83104804Y-73818433D01*
X83165628Y-74098037D01*
X83165630Y-74098043D01*
X83165631Y-74098046D01*
X83263337Y-74360006D01*
X83265635Y-74366166D01*
X83402770Y-74617309D01*
X83402775Y-74617317D01*
X83574254Y-74846387D01*
X83574270Y-74846405D01*
X83776594Y-75048729D01*
X83776612Y-75048745D01*
X84005682Y-75220224D01*
X84005690Y-75220229D01*
X84210690Y-75332168D01*
X84260095Y-75381573D01*
X84274947Y-75449846D01*
X84250530Y-75515311D01*
X84194596Y-75557182D01*
X84151263Y-75565000D01*
X30652018Y-75565000D01*
X30584979Y-75545315D01*
X30539224Y-75492511D01*
X30529280Y-75423353D01*
X30558305Y-75359797D01*
X30599952Y-75328461D01*
X30734789Y-75266078D01*
X30734798Y-75266074D01*
X31036818Y-75084354D01*
X31317420Y-74871046D01*
X31573314Y-74628650D01*
X31801501Y-74360008D01*
X31999305Y-74068269D01*
X32164407Y-73756854D01*
X32294871Y-73429414D01*
X32316175Y-73352686D01*
X32323180Y-73327453D01*
X32389168Y-73089788D01*
X32446191Y-72741957D01*
X32465274Y-72390000D01*
X32446191Y-72038043D01*
X32389168Y-71690212D01*
X32343961Y-71527390D01*
X32294873Y-71350591D01*
X32294872Y-71350589D01*
X32164411Y-71023155D01*
X32164402Y-71023137D01*
X31999305Y-70711731D01*
X31801501Y-70419992D01*
X31801497Y-70419987D01*
X31801494Y-70419983D01*
X31573314Y-70151350D01*
X31317420Y-69908954D01*
X31317413Y-69908948D01*
X31317410Y-69908946D01*
X31036815Y-69695644D01*
X30734802Y-69513928D01*
X30734789Y-69513921D01*
X30414911Y-69365929D01*
X30414906Y-69365928D01*
X30414903Y-69365927D01*
X30414901Y-69365926D01*
X30308432Y-69330052D01*
X30080880Y-69253381D01*
X29736643Y-69177608D01*
X29386238Y-69139500D01*
X29386237Y-69139500D01*
X29033763Y-69139500D01*
X29033761Y-69139500D01*
X28683356Y-69177608D01*
X28339119Y-69253381D01*
X28005093Y-69365928D01*
X28005088Y-69365929D01*
X27685210Y-69513921D01*
X27685197Y-69513928D01*
X27383184Y-69695644D01*
X27102589Y-69908946D01*
X27102580Y-69908954D01*
X26846685Y-70151350D01*
X26618505Y-70419983D01*
X26618498Y-70419993D01*
X26420695Y-70711730D01*
X26268555Y-70998696D01*
X26219762Y-71048706D01*
X26151677Y-71064397D01*
X26085917Y-71040787D01*
X26043360Y-70985373D01*
X26035000Y-70940613D01*
X26035000Y-59054996D01*
X53169435Y-59054996D01*
X53169435Y-59055003D01*
X53189630Y-59234249D01*
X53189631Y-59234254D01*
X53249211Y-59404523D01*
X53345184Y-59557262D01*
X53472738Y-59684816D01*
X53625478Y-59780789D01*
X53795745Y-59840368D01*
X53795750Y-59840369D01*
X53974996Y-59860565D01*
X53975000Y-59860565D01*
X53975004Y-59860565D01*
X54154249Y-59840369D01*
X54154252Y-59840368D01*
X54154255Y-59840368D01*
X54324522Y-59780789D01*
X54477262Y-59684816D01*
X54604816Y-59557262D01*
X54700789Y-59404522D01*
X54760368Y-59234255D01*
X54780565Y-59055000D01*
X54760368Y-58875745D01*
X54700789Y-58705478D01*
X54604816Y-58552738D01*
X54604814Y-58552736D01*
X54604813Y-58552734D01*
X54602550Y-58549896D01*
X54601659Y-58547715D01*
X54601111Y-58546842D01*
X54601264Y-58546745D01*
X54576144Y-58485209D01*
X54575500Y-58472587D01*
X54575500Y-45385096D01*
X54595185Y-45318057D01*
X54611814Y-45297420D01*
X55898535Y-44010698D01*
X55959856Y-43977215D01*
X55972311Y-43975163D01*
X56059255Y-43965368D01*
X56229522Y-43905789D01*
X56382262Y-43809816D01*
X56509816Y-43682262D01*
X56605789Y-43529522D01*
X56665368Y-43359255D01*
X56666421Y-43349913D01*
X56685565Y-43180003D01*
X56685565Y-43179996D01*
X56665369Y-43000750D01*
X56665368Y-43000745D01*
X56621537Y-42875483D01*
X56605789Y-42830478D01*
X56596618Y-42815883D01*
X56509815Y-42677737D01*
X56382262Y-42550184D01*
X56229523Y-42454211D01*
X56059254Y-42394631D01*
X56059249Y-42394630D01*
X55880004Y-42374435D01*
X55879996Y-42374435D01*
X55700750Y-42394630D01*
X55700745Y-42394631D01*
X55530476Y-42454211D01*
X55377737Y-42550184D01*
X55250184Y-42677737D01*
X55154210Y-42830478D01*
X55094630Y-43000750D01*
X55084837Y-43087668D01*
X55057770Y-43152082D01*
X55049298Y-43161465D01*
X53606286Y-44604478D01*
X53494481Y-44716282D01*
X53494479Y-44716285D01*
X53444361Y-44803094D01*
X53444359Y-44803096D01*
X53415425Y-44853209D01*
X53415424Y-44853210D01*
X53415423Y-44853215D01*
X53374499Y-45005943D01*
X53374499Y-45005945D01*
X53374499Y-45174046D01*
X53374500Y-45174059D01*
X53374500Y-58472587D01*
X53354815Y-58539626D01*
X53347450Y-58549896D01*
X53345186Y-58552734D01*
X53249211Y-58705476D01*
X53189631Y-58875745D01*
X53189630Y-58875750D01*
X53169435Y-59054996D01*
X26035000Y-59054996D01*
X26035000Y-52600014D01*
X27995000Y-52600014D01*
X27995000Y-53800000D01*
X29190879Y-53800000D01*
X29171901Y-53845818D01*
X29145000Y-53981056D01*
X29145000Y-54118944D01*
X29171901Y-54254182D01*
X29190879Y-54300000D01*
X27995000Y-54300000D01*
X27995000Y-55499985D01*
X28005493Y-55602689D01*
X28005494Y-55602696D01*
X28060641Y-55769118D01*
X28060643Y-55769123D01*
X28152684Y-55918344D01*
X28276655Y-56042315D01*
X28425876Y-56134356D01*
X28425881Y-56134358D01*
X28592303Y-56189505D01*
X28592310Y-56189506D01*
X28695014Y-56199999D01*
X28695027Y-56200000D01*
X29595000Y-56200000D01*
X29595000Y-54704120D01*
X29640818Y-54723099D01*
X29776056Y-54750000D01*
X29913944Y-54750000D01*
X30049182Y-54723099D01*
X30095000Y-54704120D01*
X30095000Y-56200000D01*
X30994973Y-56200000D01*
X30994985Y-56199999D01*
X31097689Y-56189506D01*
X31097696Y-56189505D01*
X31264118Y-56134358D01*
X31264123Y-56134356D01*
X31413344Y-56042315D01*
X31537315Y-55918344D01*
X31629356Y-55769123D01*
X31629358Y-55769118D01*
X31684505Y-55602696D01*
X31684506Y-55602689D01*
X31694999Y-55499985D01*
X31695000Y-55499972D01*
X31695000Y-54300000D01*
X30499121Y-54300000D01*
X30518099Y-54254182D01*
X30545000Y-54118944D01*
X30545000Y-53981056D01*
X30518099Y-53845818D01*
X30499121Y-53800000D01*
X31695000Y-53800000D01*
X31695000Y-52600027D01*
X31694999Y-52600014D01*
X31684506Y-52497310D01*
X31684505Y-52497303D01*
X31629358Y-52330881D01*
X31629356Y-52330876D01*
X31537315Y-52181655D01*
X31413344Y-52057684D01*
X31264123Y-51965643D01*
X31264118Y-51965641D01*
X31097696Y-51910494D01*
X31097689Y-51910493D01*
X30994985Y-51900000D01*
X30095000Y-51900000D01*
X30095000Y-53395879D01*
X30049182Y-53376901D01*
X29913944Y-53350000D01*
X29776056Y-53350000D01*
X29640818Y-53376901D01*
X29595000Y-53395879D01*
X29595000Y-51900000D01*
X28695014Y-51900000D01*
X28592310Y-51910493D01*
X28592303Y-51910494D01*
X28425881Y-51965641D01*
X28425876Y-51965643D01*
X28276655Y-52057684D01*
X28152684Y-52181655D01*
X28060643Y-52330876D01*
X28060641Y-52330881D01*
X28005494Y-52497303D01*
X28005493Y-52497310D01*
X27995000Y-52600014D01*
X26035000Y-52600014D01*
X26035000Y-48128711D01*
X27994500Y-48128711D01*
X27994500Y-48971288D01*
X28026161Y-49211785D01*
X28088947Y-49446104D01*
X28172884Y-49648745D01*
X28181776Y-49670212D01*
X28303064Y-49880289D01*
X28303066Y-49880292D01*
X28303067Y-49880293D01*
X28450733Y-50072736D01*
X28450739Y-50072743D01*
X28622256Y-50244260D01*
X28622262Y-50244265D01*
X28814711Y-50391936D01*
X29024788Y-50513224D01*
X29248900Y-50606054D01*
X29483211Y-50668838D01*
X29663586Y-50692584D01*
X29723711Y-50700500D01*
X29723712Y-50700500D01*
X29966289Y-50700500D01*
X30014388Y-50694167D01*
X30206789Y-50668838D01*
X30441100Y-50606054D01*
X30665212Y-50513224D01*
X30875289Y-50391936D01*
X31067738Y-50244265D01*
X31239265Y-50072738D01*
X31386936Y-49880289D01*
X31508224Y-49670212D01*
X31601054Y-49446100D01*
X31663838Y-49211789D01*
X31695500Y-48971288D01*
X31695500Y-48128712D01*
X31663838Y-47888211D01*
X31601054Y-47653900D01*
X31508224Y-47429788D01*
X31386936Y-47219711D01*
X31255707Y-47048690D01*
X31239266Y-47027263D01*
X31239260Y-47027256D01*
X31067743Y-46855739D01*
X31067736Y-46855733D01*
X30875293Y-46708067D01*
X30875292Y-46708066D01*
X30875289Y-46708064D01*
X30665212Y-46586776D01*
X30665205Y-46586773D01*
X30441104Y-46493947D01*
X30206785Y-46431161D01*
X29966289Y-46399500D01*
X29966288Y-46399500D01*
X29723712Y-46399500D01*
X29723711Y-46399500D01*
X29483214Y-46431161D01*
X29248895Y-46493947D01*
X29024794Y-46586773D01*
X29024785Y-46586777D01*
X28814706Y-46708067D01*
X28622263Y-46855733D01*
X28622256Y-46855739D01*
X28450739Y-47027256D01*
X28450733Y-47027263D01*
X28303067Y-47219706D01*
X28181777Y-47429785D01*
X28181773Y-47429794D01*
X28088947Y-47653895D01*
X28026161Y-47888214D01*
X27994500Y-48128711D01*
X26035000Y-48128711D01*
X26035000Y-30659386D01*
X26054685Y-30592347D01*
X26107489Y-30546592D01*
X26176647Y-30536648D01*
X26240203Y-30565673D01*
X26268555Y-30601303D01*
X26420695Y-30888269D01*
X26618498Y-31180006D01*
X26618505Y-31180016D01*
X26846685Y-31448649D01*
X26846686Y-31448650D01*
X27102580Y-31691046D01*
X27383182Y-31904354D01*
X27685202Y-32086074D01*
X27685206Y-32086075D01*
X27685210Y-32086078D01*
X28005088Y-32234070D01*
X28005092Y-32234070D01*
X28005099Y-32234074D01*
X28339122Y-32346619D01*
X28683355Y-32422391D01*
X29033763Y-32460500D01*
X29033769Y-32460500D01*
X29386231Y-32460500D01*
X29386237Y-32460500D01*
X29736645Y-32422391D01*
X30080878Y-32346619D01*
X30414901Y-32234074D01*
X30414908Y-32234070D01*
X30414911Y-32234070D01*
X30734789Y-32086078D01*
X30734798Y-32086074D01*
X31036818Y-31904354D01*
X31317420Y-31691046D01*
X31573314Y-31448650D01*
X31801501Y-31180008D01*
X31999305Y-30888269D01*
X32164407Y-30576854D01*
X32294871Y-30249414D01*
X32302547Y-30221770D01*
X32332424Y-30114160D01*
X32389168Y-29909788D01*
X32446191Y-29561957D01*
X32465274Y-29210000D01*
X32446191Y-28858043D01*
X32394054Y-28540013D01*
X60225000Y-28540013D01*
X60225000Y-28960000D01*
X61110026Y-28960000D01*
X61087141Y-28999638D01*
X61050000Y-29138249D01*
X61050000Y-29281751D01*
X61087141Y-29420362D01*
X61110026Y-29460000D01*
X60225001Y-29460000D01*
X60225001Y-29879986D01*
X60235494Y-29982697D01*
X60290641Y-30149119D01*
X60290643Y-30149124D01*
X60382684Y-30298345D01*
X60506654Y-30422315D01*
X60655875Y-30514356D01*
X60655880Y-30514358D01*
X60822302Y-30569505D01*
X60822309Y-30569506D01*
X60925019Y-30579999D01*
X61344999Y-30579999D01*
X61345000Y-30579998D01*
X61345000Y-29694974D01*
X61384638Y-29717859D01*
X61523249Y-29755000D01*
X61666751Y-29755000D01*
X61805362Y-29717859D01*
X61845000Y-29694974D01*
X61845000Y-30579999D01*
X62264972Y-30579999D01*
X62264986Y-30579998D01*
X62367697Y-30569505D01*
X62534119Y-30514358D01*
X62534124Y-30514356D01*
X62683345Y-30422315D01*
X62807315Y-30298345D01*
X62899357Y-30149121D01*
X62900931Y-30145747D01*
X62902628Y-30143818D01*
X62903149Y-30142975D01*
X62903293Y-30143063D01*
X62947099Y-30093304D01*
X63014291Y-30074147D01*
X63081174Y-30094357D01*
X63104545Y-30114159D01*
X63138138Y-30150650D01*
X63203606Y-30221767D01*
X63203610Y-30221770D01*
X63382830Y-30361263D01*
X63382836Y-30361267D01*
X63382839Y-30361269D01*
X63582590Y-30469369D01*
X63797409Y-30543116D01*
X64021437Y-30580500D01*
X64021438Y-30580500D01*
X64248562Y-30580500D01*
X64248563Y-30580500D01*
X64472591Y-30543116D01*
X64687410Y-30469369D01*
X64887161Y-30361269D01*
X65066396Y-30221765D01*
X65220224Y-30054663D01*
X65301191Y-29930734D01*
X65354338Y-29885377D01*
X65423569Y-29875953D01*
X65486905Y-29905455D01*
X65508809Y-29930734D01*
X65589773Y-30054660D01*
X65589775Y-30054662D01*
X65589776Y-30054663D01*
X65743604Y-30221765D01*
X65743607Y-30221767D01*
X65743610Y-30221770D01*
X65922830Y-30361263D01*
X65922840Y-30361270D01*
X65974290Y-30389112D01*
X66009517Y-30408176D01*
X66059108Y-30457395D01*
X66074500Y-30517231D01*
X66074500Y-55920330D01*
X66074499Y-55920348D01*
X66074499Y-56086054D01*
X66074498Y-56086054D01*
X66115423Y-56238785D01*
X66144358Y-56288900D01*
X66144359Y-56288904D01*
X66144360Y-56288904D01*
X66194479Y-56375714D01*
X66194481Y-56375717D01*
X66313349Y-56494585D01*
X66313355Y-56494590D01*
X74098366Y-64279601D01*
X74131851Y-64340924D01*
X74130891Y-64397721D01*
X74093435Y-64545633D01*
X74074844Y-64769994D01*
X74074844Y-64770005D01*
X74093434Y-64994359D01*
X74093436Y-64994371D01*
X74148703Y-65212614D01*
X74239140Y-65418792D01*
X74362276Y-65607265D01*
X74362284Y-65607276D01*
X74514756Y-65772902D01*
X74514761Y-65772907D01*
X74573981Y-65819000D01*
X74692424Y-65911189D01*
X74692429Y-65911191D01*
X74692431Y-65911193D01*
X74728930Y-65930946D01*
X74778520Y-65980165D01*
X74793628Y-66048382D01*
X74769457Y-66113937D01*
X74728930Y-66149054D01*
X74692431Y-66168806D01*
X74692422Y-66168812D01*
X74514761Y-66307092D01*
X74514756Y-66307097D01*
X74362284Y-66472723D01*
X74362276Y-66472734D01*
X74239140Y-66661207D01*
X74148703Y-66867385D01*
X74093436Y-67085628D01*
X74093434Y-67085640D01*
X74074844Y-67309994D01*
X74074844Y-67310005D01*
X74093434Y-67534359D01*
X74093436Y-67534371D01*
X74148703Y-67752614D01*
X74239140Y-67958792D01*
X74362276Y-68147265D01*
X74362284Y-68147276D01*
X74506179Y-68303585D01*
X74537102Y-68366239D01*
X74529242Y-68435665D01*
X74485095Y-68489821D01*
X74458284Y-68503750D01*
X74337911Y-68548646D01*
X74337906Y-68548649D01*
X74222812Y-68634809D01*
X74222809Y-68634812D01*
X74136649Y-68749906D01*
X74136645Y-68749913D01*
X74086403Y-68884620D01*
X74086401Y-68884627D01*
X74080000Y-68944155D01*
X74080000Y-69600000D01*
X74995749Y-69600000D01*
X74964619Y-69653919D01*
X74930000Y-69783120D01*
X74930000Y-69916880D01*
X74964619Y-70046081D01*
X74995749Y-70100000D01*
X74080000Y-70100000D01*
X74080000Y-70755844D01*
X74086401Y-70815372D01*
X74086403Y-70815379D01*
X74136645Y-70950086D01*
X74136649Y-70950093D01*
X74222809Y-71065187D01*
X74222812Y-71065190D01*
X74337906Y-71151350D01*
X74337913Y-71151354D01*
X74472620Y-71201596D01*
X74472627Y-71201598D01*
X74532155Y-71207999D01*
X74532172Y-71208000D01*
X75188000Y-71208000D01*
X75188000Y-70292251D01*
X75241919Y-70323381D01*
X75371120Y-70358000D01*
X75504880Y-70358000D01*
X75634081Y-70323381D01*
X75688000Y-70292251D01*
X75688000Y-71208000D01*
X76343828Y-71208000D01*
X76343844Y-71207999D01*
X76403372Y-71201598D01*
X76403379Y-71201596D01*
X76538086Y-71151354D01*
X76538093Y-71151350D01*
X76653187Y-71065190D01*
X76653190Y-71065187D01*
X76739350Y-70950093D01*
X76739354Y-70950086D01*
X76789596Y-70815379D01*
X76789598Y-70815372D01*
X76795999Y-70755844D01*
X76796000Y-70755827D01*
X76796000Y-70100000D01*
X75880251Y-70100000D01*
X75911381Y-70046081D01*
X75946000Y-69916880D01*
X75946000Y-69783120D01*
X75911381Y-69653919D01*
X75880251Y-69600000D01*
X76796000Y-69600000D01*
X76796000Y-68944172D01*
X76795999Y-68944155D01*
X76789598Y-68884627D01*
X76789596Y-68884620D01*
X76739354Y-68749913D01*
X76739350Y-68749906D01*
X76653190Y-68634812D01*
X76653187Y-68634809D01*
X76538093Y-68548649D01*
X76538086Y-68548645D01*
X76417716Y-68503750D01*
X76361782Y-68461879D01*
X76337365Y-68396414D01*
X76352217Y-68328141D01*
X76369814Y-68303591D01*
X76513722Y-68147268D01*
X76636860Y-67958791D01*
X76727296Y-67752616D01*
X76782564Y-67534368D01*
X76801156Y-67310000D01*
X76782564Y-67085632D01*
X76727296Y-66867384D01*
X76636860Y-66661209D01*
X76513722Y-66472732D01*
X76513719Y-66472729D01*
X76513715Y-66472723D01*
X76361243Y-66307097D01*
X76361238Y-66307092D01*
X76183577Y-66168812D01*
X76183578Y-66168812D01*
X76183576Y-66168811D01*
X76147070Y-66149055D01*
X76097479Y-66099836D01*
X76082371Y-66031619D01*
X76106541Y-65966064D01*
X76147070Y-65930945D01*
X76147084Y-65930936D01*
X76183576Y-65911189D01*
X76361240Y-65772906D01*
X76513722Y-65607268D01*
X76636860Y-65418791D01*
X76727296Y-65212616D01*
X76782564Y-64994368D01*
X76801156Y-64770000D01*
X76801156Y-64769994D01*
X93886844Y-64769994D01*
X93886844Y-64770005D01*
X93905434Y-64994359D01*
X93905436Y-64994371D01*
X93960703Y-65212614D01*
X94051140Y-65418792D01*
X94132156Y-65542796D01*
X94174278Y-65607268D01*
X94317815Y-65763189D01*
X94348737Y-65825842D01*
X94340877Y-65895268D01*
X94296731Y-65949424D01*
X94269919Y-65963353D01*
X94149669Y-66008203D01*
X94149664Y-66008206D01*
X94034455Y-66094452D01*
X94034452Y-66094455D01*
X93948206Y-66209664D01*
X93948202Y-66209671D01*
X93897908Y-66344517D01*
X93891501Y-66404116D01*
X93891501Y-66404123D01*
X93891500Y-66404135D01*
X93891500Y-68215870D01*
X93891501Y-68215876D01*
X93897908Y-68275483D01*
X93948202Y-68410328D01*
X93948206Y-68410335D01*
X94034452Y-68525544D01*
X94034455Y-68525547D01*
X94149664Y-68611793D01*
X94149671Y-68611797D01*
X94284517Y-68662091D01*
X94284516Y-68662091D01*
X94291444Y-68662835D01*
X94344127Y-68668500D01*
X96155872Y-68668499D01*
X96215483Y-68662091D01*
X96350331Y-68611796D01*
X96465546Y-68525546D01*
X96551796Y-68410331D01*
X96602091Y-68275483D01*
X96608500Y-68215873D01*
X96608499Y-66404128D01*
X96602091Y-66344517D01*
X96588134Y-66307097D01*
X96551797Y-66209671D01*
X96551793Y-66209664D01*
X96465547Y-66094455D01*
X96465544Y-66094452D01*
X96350335Y-66008206D01*
X96350328Y-66008202D01*
X96230081Y-65963353D01*
X96174147Y-65921482D01*
X96149730Y-65856017D01*
X96164582Y-65787744D01*
X96182177Y-65763197D01*
X96325722Y-65607268D01*
X96448860Y-65418791D01*
X96539296Y-65212616D01*
X96594564Y-64994368D01*
X96613156Y-64770000D01*
X96594564Y-64545632D01*
X96539296Y-64327384D01*
X96448860Y-64121209D01*
X96434992Y-64099983D01*
X96325723Y-63932734D01*
X96325715Y-63932723D01*
X96173243Y-63767097D01*
X96173238Y-63767092D01*
X95995577Y-63628812D01*
X95995572Y-63628808D01*
X95797580Y-63521661D01*
X95797577Y-63521659D01*
X95797574Y-63521658D01*
X95797571Y-63521657D01*
X95797569Y-63521656D01*
X95584637Y-63448556D01*
X95362569Y-63411500D01*
X95137431Y-63411500D01*
X94915362Y-63448556D01*
X94702430Y-63521656D01*
X94702419Y-63521661D01*
X94504427Y-63628808D01*
X94504422Y-63628812D01*
X94326761Y-63767092D01*
X94326756Y-63767097D01*
X94174284Y-63932723D01*
X94174276Y-63932734D01*
X94051140Y-64121207D01*
X93960703Y-64327385D01*
X93905436Y-64545628D01*
X93905434Y-64545640D01*
X93886844Y-64769994D01*
X76801156Y-64769994D01*
X76782564Y-64545632D01*
X76727296Y-64327384D01*
X76636860Y-64121209D01*
X76622992Y-64099983D01*
X76513723Y-63932734D01*
X76513715Y-63932723D01*
X76361243Y-63767097D01*
X76361238Y-63767092D01*
X76183577Y-63628812D01*
X76183572Y-63628808D01*
X75985580Y-63521661D01*
X75985577Y-63521659D01*
X75985574Y-63521658D01*
X75985571Y-63521657D01*
X75985569Y-63521656D01*
X75772637Y-63448556D01*
X75550569Y-63411500D01*
X75325431Y-63411500D01*
X75103363Y-63448556D01*
X75074158Y-63458582D01*
X75004360Y-63461731D01*
X74946216Y-63428981D01*
X73747229Y-62229994D01*
X101379803Y-62229994D01*
X101379803Y-62230005D01*
X101398558Y-62456346D01*
X101398558Y-62456349D01*
X101398559Y-62456350D01*
X101454315Y-62676526D01*
X101545550Y-62884521D01*
X101669776Y-63074663D01*
X101823604Y-63241765D01*
X101835631Y-63251126D01*
X101840125Y-63254624D01*
X101880938Y-63311335D01*
X101884611Y-63381108D01*
X101849980Y-63441791D01*
X101821694Y-63461202D01*
X101821813Y-63461395D01*
X101817872Y-63463825D01*
X101816368Y-63464858D01*
X101815673Y-63465181D01*
X101666342Y-63557289D01*
X101542289Y-63681342D01*
X101450187Y-63830663D01*
X101450186Y-63830666D01*
X101395001Y-63997203D01*
X101395001Y-63997204D01*
X101395000Y-63997204D01*
X101384500Y-64099983D01*
X101384500Y-65440001D01*
X101384501Y-65440018D01*
X101395000Y-65542796D01*
X101395001Y-65542799D01*
X101416365Y-65607269D01*
X101450186Y-65709334D01*
X101542288Y-65858656D01*
X101666344Y-65982712D01*
X101815666Y-66074814D01*
X101982203Y-66129999D01*
X102084991Y-66140500D01*
X103425008Y-66140499D01*
X103527797Y-66129999D01*
X103694334Y-66074814D01*
X103843656Y-65982712D01*
X103967712Y-65858656D01*
X104059814Y-65709334D01*
X104114999Y-65542797D01*
X104125500Y-65440009D01*
X104125499Y-64099992D01*
X104114999Y-63997203D01*
X104059814Y-63830666D01*
X103967712Y-63681344D01*
X103843656Y-63557288D01*
X103694334Y-63465186D01*
X103694332Y-63465185D01*
X103694330Y-63465184D01*
X103693637Y-63464861D01*
X103693240Y-63464512D01*
X103688187Y-63461395D01*
X103688719Y-63460531D01*
X103641195Y-63418691D01*
X103622041Y-63351498D01*
X103642254Y-63284616D01*
X103669872Y-63254625D01*
X103686396Y-63241765D01*
X103840224Y-63074663D01*
X103964450Y-62884521D01*
X104055685Y-62676526D01*
X104111441Y-62456350D01*
X104130197Y-62230000D01*
X104111441Y-62003650D01*
X104055685Y-61783474D01*
X103964450Y-61575479D01*
X103840224Y-61385337D01*
X103686396Y-61218235D01*
X103686391Y-61218231D01*
X103686389Y-61218229D01*
X103507169Y-61078736D01*
X103507163Y-61078732D01*
X103307411Y-60970631D01*
X103307406Y-60970629D01*
X103092593Y-60896884D01*
X102943239Y-60871961D01*
X102868563Y-60859500D01*
X102641437Y-60859500D01*
X102585430Y-60868846D01*
X102417406Y-60896884D01*
X102202593Y-60970629D01*
X102202588Y-60970631D01*
X102002836Y-61078732D01*
X102002830Y-61078736D01*
X101823610Y-61218229D01*
X101823607Y-61218232D01*
X101669776Y-61385337D01*
X101545548Y-61575482D01*
X101454314Y-61783475D01*
X101398558Y-62003653D01*
X101379803Y-62229994D01*
X73747229Y-62229994D01*
X67311819Y-55794584D01*
X67278334Y-55733261D01*
X67275500Y-55706903D01*
X67275500Y-53466992D01*
X82834671Y-53466992D01*
X82834671Y-53467007D01*
X82853964Y-53761363D01*
X82853965Y-53761373D01*
X82853966Y-53761380D01*
X82853968Y-53761390D01*
X82911518Y-54050716D01*
X82911521Y-54050730D01*
X83006349Y-54330080D01*
X83136825Y-54594660D01*
X83136829Y-54594667D01*
X83300725Y-54839955D01*
X83495241Y-55061758D01*
X83717043Y-55256273D01*
X83962335Y-55420172D01*
X84226923Y-55550652D01*
X84506278Y-55645481D01*
X84795620Y-55703034D01*
X84823888Y-55704886D01*
X85089993Y-55722329D01*
X85090000Y-55722329D01*
X85090007Y-55722329D01*
X85325675Y-55706881D01*
X85384380Y-55703034D01*
X85673722Y-55645481D01*
X85953077Y-55550652D01*
X86217665Y-55420172D01*
X86462957Y-55256273D01*
X86684758Y-55061758D01*
X86879273Y-54839957D01*
X87043172Y-54594665D01*
X87173652Y-54330077D01*
X87268481Y-54050722D01*
X87326034Y-53761380D01*
X87345329Y-53467000D01*
X87345329Y-53466992D01*
X87326035Y-53172636D01*
X87326034Y-53172620D01*
X87268481Y-52883278D01*
X87173652Y-52603923D01*
X87043172Y-52339336D01*
X87037519Y-52330876D01*
X86937813Y-52181655D01*
X86879273Y-52094043D01*
X86766667Y-51965641D01*
X86684758Y-51872241D01*
X86462955Y-51677725D01*
X86217667Y-51513829D01*
X86217660Y-51513825D01*
X85953080Y-51383349D01*
X85673730Y-51288521D01*
X85673724Y-51288519D01*
X85673722Y-51288519D01*
X85384380Y-51230966D01*
X85384373Y-51230965D01*
X85384363Y-51230964D01*
X85090007Y-51211671D01*
X85089993Y-51211671D01*
X84795636Y-51230964D01*
X84795624Y-51230965D01*
X84795620Y-51230966D01*
X84795612Y-51230967D01*
X84795609Y-51230968D01*
X84506283Y-51288518D01*
X84506269Y-51288521D01*
X84226919Y-51383349D01*
X83962334Y-51513828D01*
X83717041Y-51677728D01*
X83495241Y-51872241D01*
X83300728Y-52094041D01*
X83136828Y-52339334D01*
X83006349Y-52603919D01*
X82911521Y-52883269D01*
X82911518Y-52883283D01*
X82853968Y-53172609D01*
X82853964Y-53172636D01*
X82834671Y-53466992D01*
X67275500Y-53466992D01*
X67275500Y-48132998D01*
X83084390Y-48132998D01*
X83084390Y-48133001D01*
X83104804Y-48418433D01*
X83165628Y-48698037D01*
X83265635Y-48966166D01*
X83402770Y-49217309D01*
X83402775Y-49217317D01*
X83574254Y-49446387D01*
X83574270Y-49446405D01*
X83776594Y-49648729D01*
X83776612Y-49648745D01*
X84005682Y-49820224D01*
X84005690Y-49820229D01*
X84256833Y-49957364D01*
X84256832Y-49957364D01*
X84256836Y-49957365D01*
X84256839Y-49957367D01*
X84524954Y-50057369D01*
X84524960Y-50057370D01*
X84524962Y-50057371D01*
X84804566Y-50118195D01*
X84804568Y-50118195D01*
X84804572Y-50118196D01*
X85058220Y-50136337D01*
X85089999Y-50138610D01*
X85090000Y-50138610D01*
X85090001Y-50138610D01*
X85118595Y-50136564D01*
X85375428Y-50118196D01*
X85655046Y-50057369D01*
X85923161Y-49957367D01*
X86174315Y-49820226D01*
X86403395Y-49648739D01*
X86605739Y-49446395D01*
X86777226Y-49217315D01*
X86914367Y-48966161D01*
X87014369Y-48698046D01*
X87075196Y-48418428D01*
X87095610Y-48133000D01*
X87075196Y-47847572D01*
X87033065Y-47653900D01*
X87014371Y-47567962D01*
X87014370Y-47567960D01*
X87014369Y-47567954D01*
X86914367Y-47299839D01*
X86777226Y-47048685D01*
X86761189Y-47027262D01*
X86605745Y-46819612D01*
X86605729Y-46819594D01*
X86403405Y-46617270D01*
X86403387Y-46617254D01*
X86174317Y-46445775D01*
X86174309Y-46445770D01*
X85923166Y-46308635D01*
X85923167Y-46308635D01*
X85815915Y-46268632D01*
X85655046Y-46208631D01*
X85655043Y-46208630D01*
X85655037Y-46208628D01*
X85375433Y-46147804D01*
X85090001Y-46127390D01*
X85089999Y-46127390D01*
X84804566Y-46147804D01*
X84524962Y-46208628D01*
X84256833Y-46308635D01*
X84005690Y-46445770D01*
X84005682Y-46445775D01*
X83776612Y-46617254D01*
X83776594Y-46617270D01*
X83574270Y-46819594D01*
X83574254Y-46819612D01*
X83402775Y-47048682D01*
X83402770Y-47048690D01*
X83265635Y-47299833D01*
X83165628Y-47567962D01*
X83104804Y-47847566D01*
X83084390Y-48132998D01*
X67275500Y-48132998D01*
X67275500Y-39369994D01*
X74074844Y-39369994D01*
X74074844Y-39370005D01*
X74093434Y-39594359D01*
X74093436Y-39594371D01*
X74148703Y-39812614D01*
X74239140Y-40018792D01*
X74362276Y-40207265D01*
X74362284Y-40207276D01*
X74514756Y-40372902D01*
X74514761Y-40372907D01*
X74573981Y-40419000D01*
X74692424Y-40511189D01*
X74692429Y-40511191D01*
X74692431Y-40511193D01*
X74728930Y-40530946D01*
X74778520Y-40580165D01*
X74793628Y-40648382D01*
X74769457Y-40713937D01*
X74728930Y-40749054D01*
X74692431Y-40768806D01*
X74692422Y-40768812D01*
X74514761Y-40907092D01*
X74514756Y-40907097D01*
X74362284Y-41072723D01*
X74362276Y-41072734D01*
X74239140Y-41261207D01*
X74148703Y-41467385D01*
X74093436Y-41685628D01*
X74093434Y-41685640D01*
X74074844Y-41909994D01*
X74074844Y-41910005D01*
X74093434Y-42134359D01*
X74093436Y-42134371D01*
X74148703Y-42352614D01*
X74239140Y-42558792D01*
X74362276Y-42747265D01*
X74362284Y-42747276D01*
X74506179Y-42903585D01*
X74537102Y-42966239D01*
X74529242Y-43035665D01*
X74485095Y-43089821D01*
X74458284Y-43103750D01*
X74337911Y-43148646D01*
X74337906Y-43148649D01*
X74222812Y-43234809D01*
X74222809Y-43234812D01*
X74136649Y-43349906D01*
X74136645Y-43349913D01*
X74086403Y-43484620D01*
X74086401Y-43484627D01*
X74080000Y-43544155D01*
X74080000Y-44200000D01*
X74995749Y-44200000D01*
X74964619Y-44253919D01*
X74930000Y-44383120D01*
X74930000Y-44516880D01*
X74964619Y-44646081D01*
X74995749Y-44700000D01*
X74080000Y-44700000D01*
X74080000Y-45355844D01*
X74086401Y-45415372D01*
X74086403Y-45415379D01*
X74136645Y-45550086D01*
X74136649Y-45550093D01*
X74222809Y-45665187D01*
X74222812Y-45665190D01*
X74337906Y-45751350D01*
X74337913Y-45751354D01*
X74472620Y-45801596D01*
X74472627Y-45801598D01*
X74532155Y-45807999D01*
X74532172Y-45808000D01*
X75188000Y-45808000D01*
X75188000Y-44892251D01*
X75241919Y-44923381D01*
X75371120Y-44958000D01*
X75504880Y-44958000D01*
X75634081Y-44923381D01*
X75688000Y-44892251D01*
X75688000Y-45808000D01*
X76343828Y-45808000D01*
X76343844Y-45807999D01*
X76403372Y-45801598D01*
X76403379Y-45801596D01*
X76538086Y-45751354D01*
X76538093Y-45751350D01*
X76653187Y-45665190D01*
X76653190Y-45665187D01*
X76739350Y-45550093D01*
X76739354Y-45550086D01*
X76789596Y-45415379D01*
X76789598Y-45415372D01*
X76795999Y-45355844D01*
X76796000Y-45355827D01*
X76796000Y-44700000D01*
X75880251Y-44700000D01*
X75911381Y-44646081D01*
X75946000Y-44516880D01*
X75946000Y-44383120D01*
X75911381Y-44253919D01*
X75880251Y-44200000D01*
X76796000Y-44200000D01*
X76796000Y-43544172D01*
X76795999Y-43544155D01*
X76789598Y-43484627D01*
X76789596Y-43484620D01*
X76739354Y-43349913D01*
X76739350Y-43349906D01*
X76653190Y-43234812D01*
X76653187Y-43234809D01*
X76538093Y-43148649D01*
X76538086Y-43148645D01*
X76417716Y-43103750D01*
X76361782Y-43061879D01*
X76337365Y-42996414D01*
X76352217Y-42928141D01*
X76369814Y-42903591D01*
X76513722Y-42747268D01*
X76636860Y-42558791D01*
X76727296Y-42352616D01*
X76782564Y-42134368D01*
X76801156Y-41910000D01*
X76782564Y-41685632D01*
X76727296Y-41467384D01*
X76636860Y-41261209D01*
X76513722Y-41072732D01*
X76513719Y-41072729D01*
X76513715Y-41072723D01*
X76361243Y-40907097D01*
X76361238Y-40907092D01*
X76183577Y-40768812D01*
X76183578Y-40768812D01*
X76183576Y-40768811D01*
X76147070Y-40749055D01*
X76097479Y-40699836D01*
X76082371Y-40631619D01*
X76106541Y-40566064D01*
X76147070Y-40530945D01*
X76147084Y-40530936D01*
X76183576Y-40511189D01*
X76361240Y-40372906D01*
X76513722Y-40207268D01*
X76636860Y-40018791D01*
X76727296Y-39812616D01*
X76782564Y-39594368D01*
X76801156Y-39370000D01*
X76801156Y-39369994D01*
X93886844Y-39369994D01*
X93886844Y-39370005D01*
X93905434Y-39594359D01*
X93905436Y-39594371D01*
X93960703Y-39812614D01*
X94051140Y-40018792D01*
X94132156Y-40142796D01*
X94174278Y-40207268D01*
X94317815Y-40363189D01*
X94348737Y-40425842D01*
X94340877Y-40495268D01*
X94296731Y-40549424D01*
X94269919Y-40563353D01*
X94149669Y-40608203D01*
X94149664Y-40608206D01*
X94034455Y-40694452D01*
X94034452Y-40694455D01*
X93948206Y-40809664D01*
X93948202Y-40809671D01*
X93897908Y-40944517D01*
X93891501Y-41004116D01*
X93891501Y-41004123D01*
X93891500Y-41004135D01*
X93891500Y-42815870D01*
X93891501Y-42815876D01*
X93897908Y-42875483D01*
X93948202Y-43010328D01*
X93948206Y-43010335D01*
X94034452Y-43125544D01*
X94034455Y-43125547D01*
X94149664Y-43211793D01*
X94149671Y-43211797D01*
X94284517Y-43262091D01*
X94284516Y-43262091D01*
X94291444Y-43262835D01*
X94344127Y-43268500D01*
X96155872Y-43268499D01*
X96215483Y-43262091D01*
X96350331Y-43211796D01*
X96465546Y-43125546D01*
X96551796Y-43010331D01*
X96602091Y-42875483D01*
X96608500Y-42815873D01*
X96608499Y-41004128D01*
X96602091Y-40944517D01*
X96588134Y-40907097D01*
X96551797Y-40809671D01*
X96551793Y-40809664D01*
X96465547Y-40694455D01*
X96465544Y-40694452D01*
X96350335Y-40608206D01*
X96350328Y-40608202D01*
X96230081Y-40563353D01*
X96174147Y-40521482D01*
X96149730Y-40456017D01*
X96164582Y-40387744D01*
X96182177Y-40363197D01*
X96325722Y-40207268D01*
X96448860Y-40018791D01*
X96539296Y-39812616D01*
X96594564Y-39594368D01*
X96613156Y-39370000D01*
X96594564Y-39145632D01*
X96539296Y-38927384D01*
X96448860Y-38721209D01*
X96434992Y-38699983D01*
X96325723Y-38532734D01*
X96325715Y-38532723D01*
X96173243Y-38367097D01*
X96173238Y-38367092D01*
X95995577Y-38228812D01*
X95995572Y-38228808D01*
X95797580Y-38121661D01*
X95797577Y-38121659D01*
X95797574Y-38121658D01*
X95797571Y-38121657D01*
X95797569Y-38121656D01*
X95584637Y-38048556D01*
X95362569Y-38011500D01*
X95137431Y-38011500D01*
X94915362Y-38048556D01*
X94702430Y-38121656D01*
X94702419Y-38121661D01*
X94504427Y-38228808D01*
X94504422Y-38228812D01*
X94326761Y-38367092D01*
X94326756Y-38367097D01*
X94174284Y-38532723D01*
X94174276Y-38532734D01*
X94051140Y-38721207D01*
X93960703Y-38927385D01*
X93905436Y-39145628D01*
X93905434Y-39145640D01*
X93886844Y-39369994D01*
X76801156Y-39369994D01*
X76782564Y-39145632D01*
X76727296Y-38927384D01*
X76636860Y-38721209D01*
X76622992Y-38699983D01*
X76513723Y-38532734D01*
X76513715Y-38532723D01*
X76361243Y-38367097D01*
X76361238Y-38367092D01*
X76183577Y-38228812D01*
X76183572Y-38228808D01*
X75985580Y-38121661D01*
X75985577Y-38121659D01*
X75985574Y-38121658D01*
X75985571Y-38121657D01*
X75985569Y-38121656D01*
X75772637Y-38048556D01*
X75550569Y-38011500D01*
X75325431Y-38011500D01*
X75103362Y-38048556D01*
X74890430Y-38121656D01*
X74890419Y-38121661D01*
X74692427Y-38228808D01*
X74692422Y-38228812D01*
X74514761Y-38367092D01*
X74514756Y-38367097D01*
X74362284Y-38532723D01*
X74362276Y-38532734D01*
X74239140Y-38721207D01*
X74148703Y-38927385D01*
X74093436Y-39145628D01*
X74093434Y-39145640D01*
X74074844Y-39369994D01*
X67275500Y-39369994D01*
X67275500Y-36829994D01*
X101379803Y-36829994D01*
X101379803Y-36830005D01*
X101398558Y-37056346D01*
X101398558Y-37056349D01*
X101398559Y-37056350D01*
X101454315Y-37276526D01*
X101545550Y-37484521D01*
X101669776Y-37674663D01*
X101823604Y-37841765D01*
X101835631Y-37851126D01*
X101840125Y-37854624D01*
X101880938Y-37911335D01*
X101884611Y-37981108D01*
X101849980Y-38041791D01*
X101821694Y-38061202D01*
X101821813Y-38061395D01*
X101817872Y-38063825D01*
X101816368Y-38064858D01*
X101815673Y-38065181D01*
X101666342Y-38157289D01*
X101542289Y-38281342D01*
X101450187Y-38430663D01*
X101450186Y-38430666D01*
X101395001Y-38597203D01*
X101395001Y-38597204D01*
X101395000Y-38597204D01*
X101384500Y-38699983D01*
X101384500Y-40040001D01*
X101384501Y-40040018D01*
X101395000Y-40142796D01*
X101395001Y-40142799D01*
X101416365Y-40207269D01*
X101450186Y-40309334D01*
X101542288Y-40458656D01*
X101666344Y-40582712D01*
X101815666Y-40674814D01*
X101982203Y-40729999D01*
X102084991Y-40740500D01*
X103425008Y-40740499D01*
X103527797Y-40729999D01*
X103694334Y-40674814D01*
X103843656Y-40582712D01*
X103967712Y-40458656D01*
X104059814Y-40309334D01*
X104114999Y-40142797D01*
X104125500Y-40040009D01*
X104125499Y-38699992D01*
X104114999Y-38597203D01*
X104059814Y-38430666D01*
X103967712Y-38281344D01*
X103843656Y-38157288D01*
X103694334Y-38065186D01*
X103694332Y-38065185D01*
X103694330Y-38065184D01*
X103693637Y-38064861D01*
X103693240Y-38064512D01*
X103688187Y-38061395D01*
X103688719Y-38060531D01*
X103641195Y-38018691D01*
X103622041Y-37951498D01*
X103642254Y-37884616D01*
X103669872Y-37854625D01*
X103686396Y-37841765D01*
X103840224Y-37674663D01*
X103964450Y-37484521D01*
X104055685Y-37276526D01*
X104111441Y-37056350D01*
X104130197Y-36830000D01*
X104111441Y-36603650D01*
X104055685Y-36383474D01*
X103964450Y-36175479D01*
X103840224Y-35985337D01*
X103686396Y-35818235D01*
X103686391Y-35818231D01*
X103686389Y-35818229D01*
X103507169Y-35678736D01*
X103507163Y-35678732D01*
X103307411Y-35570631D01*
X103307406Y-35570629D01*
X103092593Y-35496884D01*
X102943239Y-35471961D01*
X102868563Y-35459500D01*
X102641437Y-35459500D01*
X102585430Y-35468846D01*
X102417406Y-35496884D01*
X102202593Y-35570629D01*
X102202588Y-35570631D01*
X102002836Y-35678732D01*
X102002830Y-35678736D01*
X101823610Y-35818229D01*
X101823607Y-35818232D01*
X101669776Y-35985337D01*
X101545548Y-36175482D01*
X101454314Y-36383475D01*
X101398558Y-36603653D01*
X101379803Y-36829994D01*
X67275500Y-36829994D01*
X67275500Y-30517231D01*
X67295185Y-30450192D01*
X67340482Y-30408176D01*
X67427161Y-30361269D01*
X67606396Y-30221765D01*
X67760224Y-30054663D01*
X67884450Y-29864521D01*
X67975685Y-29656526D01*
X68031441Y-29436350D01*
X68050197Y-29210000D01*
X68048926Y-29194667D01*
X68031441Y-28983653D01*
X68031441Y-28983650D01*
X67975685Y-28763474D01*
X67884450Y-28555479D01*
X67760224Y-28365337D01*
X67606396Y-28198235D01*
X67606391Y-28198231D01*
X67606389Y-28198229D01*
X67427169Y-28058736D01*
X67427163Y-28058732D01*
X67227411Y-27950631D01*
X67227406Y-27950629D01*
X67012593Y-27876884D01*
X66854440Y-27850493D01*
X66788563Y-27839500D01*
X66561437Y-27839500D01*
X66505430Y-27848846D01*
X66337406Y-27876884D01*
X66122593Y-27950629D01*
X66122588Y-27950631D01*
X65922836Y-28058732D01*
X65922830Y-28058736D01*
X65743610Y-28198229D01*
X65743607Y-28198232D01*
X65589776Y-28365337D01*
X65508809Y-28489266D01*
X65455662Y-28534622D01*
X65386431Y-28544046D01*
X65323095Y-28514544D01*
X65301191Y-28489266D01*
X65269330Y-28440500D01*
X65220224Y-28365337D01*
X65066396Y-28198235D01*
X65066391Y-28198231D01*
X65066389Y-28198229D01*
X64887169Y-28058736D01*
X64887163Y-28058732D01*
X64687411Y-27950631D01*
X64687406Y-27950629D01*
X64472593Y-27876884D01*
X64314440Y-27850493D01*
X64248563Y-27839500D01*
X64021437Y-27839500D01*
X63965430Y-27848846D01*
X63797406Y-27876884D01*
X63582593Y-27950629D01*
X63582588Y-27950631D01*
X63382836Y-28058732D01*
X63382830Y-28058736D01*
X63203610Y-28198229D01*
X63203600Y-28198238D01*
X63104546Y-28305839D01*
X63044659Y-28341830D01*
X62974821Y-28339729D01*
X62917205Y-28300205D01*
X62900933Y-28274256D01*
X62899359Y-28270881D01*
X62807315Y-28121654D01*
X62683345Y-27997684D01*
X62534124Y-27905643D01*
X62534119Y-27905641D01*
X62367697Y-27850494D01*
X62367690Y-27850493D01*
X62264986Y-27840000D01*
X61845000Y-27840000D01*
X61845000Y-28725025D01*
X61805362Y-28702141D01*
X61666751Y-28665000D01*
X61523249Y-28665000D01*
X61384638Y-28702141D01*
X61345000Y-28725025D01*
X61345000Y-27840000D01*
X60925028Y-27840000D01*
X60925012Y-27840001D01*
X60822302Y-27850494D01*
X60655880Y-27905641D01*
X60655875Y-27905643D01*
X60506654Y-27997684D01*
X60382684Y-28121654D01*
X60290643Y-28270875D01*
X60290641Y-28270880D01*
X60235494Y-28437302D01*
X60235493Y-28437309D01*
X60225000Y-28540013D01*
X32394054Y-28540013D01*
X32389168Y-28510212D01*
X32342048Y-28340500D01*
X32294873Y-28170591D01*
X32294872Y-28170589D01*
X32164411Y-27843155D01*
X32164402Y-27843137D01*
X31999305Y-27531731D01*
X31801501Y-27239992D01*
X31801497Y-27239987D01*
X31801494Y-27239983D01*
X31573314Y-26971350D01*
X31519368Y-26920250D01*
X31317420Y-26728954D01*
X31317413Y-26728948D01*
X31317410Y-26728946D01*
X31036815Y-26515644D01*
X30734802Y-26333928D01*
X30734789Y-26333921D01*
X30599952Y-26271539D01*
X30547374Y-26225525D01*
X30528020Y-26158389D01*
X30548034Y-26091448D01*
X30601063Y-26045953D01*
X30652018Y-26035000D01*
X83671536Y-26035000D01*
X83738575Y-26054685D01*
G37*
%TD.AperFunction*%
%TD*%
M02*
